<svg width="351" height="207" viewBox="0 0 351 207" fill="none" xmlns="http://www.w3.org/2000/svg">
<path d="M211.97 18.7896C213.7 30.7892 205.368 41.9504 193.368 43.6796C181.369 45.4088 170.208 37.1296 168.426 25.13C166.644 13.1304 174.976 1.96919 187.028 0.239994C199.028 -1.54161 210.189 6.78999 211.97 18.7896Z" fill="#F5F5F5"/>
<path d="M206.783 19.5232C208.093 28.6408 201.753 37.1296 192.583 38.492C183.413 39.802 174.924 33.514 173.614 24.344C172.304 15.2264 178.644 6.73759 187.814 5.37519C196.932 4.06519 205.421 10.4056 206.783 19.5232Z" fill="#EBEBEB"/>
<path d="M206.678 18.9992C206.573 18.9992 206.416 18.318 205.944 17.0604C205.473 15.8552 204.739 14.0736 203.272 12.2396C202.538 11.3488 201.7 10.4056 200.652 9.5672C199.604 8.7288 198.399 7.94281 196.984 7.31401C196.303 6.99961 195.569 6.73761 194.783 6.52801C193.997 6.31841 193.211 6.10881 192.425 6.00401C191.587 5.89921 190.748 5.8468 189.91 5.8468C189.071 5.8468 188.181 5.9516 187.342 6.1088C186.504 6.266 185.665 6.4756 184.827 6.7376C184.041 6.9996 183.255 7.3664 182.521 7.7332C181.788 8.1 181.107 8.5716 180.478 9.0432C179.849 9.5148 179.273 10.0388 178.696 10.5628C177.596 11.6108 176.757 12.816 176.024 13.9688C175.343 15.1216 174.819 16.3268 174.504 17.4272C173.771 19.628 173.666 21.5668 173.666 22.8768C173.666 24.1868 173.771 24.9204 173.666 24.9204C173.613 24.9204 173.351 24.2392 173.194 22.8768C173.037 21.5668 173.037 19.5232 173.666 17.1652C173.98 16.0124 174.452 14.7024 175.133 13.4448C175.814 12.1872 176.757 10.9296 177.858 9.7244C178.434 9.14801 179.063 8.5716 179.744 8.0476C180.425 7.5236 181.159 7.052 181.945 6.6328C182.731 6.2136 183.569 5.8468 184.408 5.5324C185.299 5.21801 186.189 5.0084 187.133 4.7988C188.076 4.6416 188.967 4.5368 189.91 4.5368C190.853 4.5368 191.744 4.58921 192.635 4.69401C193.525 4.79881 194.364 5.0084 195.202 5.2704C196.041 5.5324 196.774 5.8468 197.508 6.1612C198.975 6.8424 200.285 7.7332 201.333 8.6764C202.433 9.61961 203.324 10.6676 204.005 11.6632C205.42 13.6544 206.101 15.5408 206.416 16.8508C206.73 18.2656 206.783 18.9992 206.678 18.9992Z" fill="#E0E0E0"/>
<path d="M192.918 24.8477L183.054 26.3816L182.619 23.5821L192.417 22.0582C193.247 21.9292 193.896 21.6955 194.366 21.357C194.834 21.0098 195.149 20.5848 195.309 20.082C195.469 19.5704 195.501 19.0079 195.405 18.3945C195.317 17.8242 195.113 17.3116 194.794 16.8567C194.476 16.4018 194.043 16.0621 193.494 15.8376C192.955 15.6118 192.292 15.56 191.506 15.6823L187.825 16.2548L190.32 32.3004L186.756 32.8547L183.821 13.9836L191.053 12.8589C192.531 12.6291 193.828 12.6928 194.946 13.05C196.063 13.4071 196.969 13.9964 197.663 14.8176C198.366 15.6376 198.809 16.6351 198.991 17.8102C199.185 19.0545 199.066 20.1659 198.634 21.1446C198.211 22.1219 197.513 22.9295 196.542 23.5673C195.577 24.1952 194.369 24.622 192.918 24.8477ZM193.626 25.9854L194.063 28.7979L183.681 30.4125L183.244 27.5999L193.626 25.9854Z" fill="#E0E0E0"/>
<path d="M326.779 113.529C326.779 113.529 321.906 110.699 316.875 122.28C311.845 133.86 310.063 140.462 310.063 140.462C310.063 140.462 308.701 142.925 306.972 141.458C305.243 140.043 302.78 135.799 300.107 136.742C297.33 137.738 296.544 140.986 297.383 145.598C298.221 150.209 299.636 160.479 299.741 161.37C299.845 162.261 299.426 163.676 298.116 162.837C296.806 161.999 288.999 154.348 285.593 158.278C282.187 162.208 286.588 174.732 287.06 176.094C287.532 177.457 287.269 178.086 286.641 178.452C286.012 178.819 283.602 175.99 281.296 173.894C278.99 171.798 275.951 169.754 274.169 172.217C272.388 174.627 272.335 184.269 282.396 199.255L287.479 205.91L295.863 204.914C313.627 201.77 320.543 195.063 321.015 192.076C321.539 189.09 317.976 188.304 314.832 188.094C311.74 187.884 308.02 188.146 307.863 187.413C307.705 186.679 307.967 186.103 309.277 185.474C310.587 184.845 322.692 179.343 323.111 174.156C323.53 168.968 312.631 168.706 311.111 168.287C309.644 167.868 310.325 166.61 311.059 166.086C311.793 165.51 320.177 159.484 324.054 156.864C327.984 154.244 329.766 151.466 328.561 148.742C327.355 146.122 322.639 147.274 320.386 147.065C318.185 146.855 318.971 144.13 318.971 144.13C318.971 144.13 322.482 138.262 327.303 126.629C332.124 114.996 326.569 113.424 326.569 113.424" fill="#EBEBEB"/>
<path d="M287.793 204.181C291.357 195.64 296.439 183.85 302.046 170.907C307.653 157.912 312.736 146.174 316.351 137.685C318.133 133.441 319.6 129.982 320.648 127.572C321.172 126.367 321.539 125.476 321.801 124.847C321.958 124.533 322.011 124.323 322.115 124.114C322.168 123.956 322.22 123.852 322.22 123.852C322.22 123.852 322.22 123.956 322.115 124.114C322.063 124.271 321.958 124.533 321.853 124.847C321.591 125.476 321.225 126.419 320.753 127.624C319.757 130.035 318.343 133.493 316.561 137.738C312.998 146.279 307.915 158.069 302.308 171.012C296.701 184.007 291.619 195.744 288.003 204.286" fill="#E0E0E0"/>
<path d="M303.304 142.768C303.304 142.768 303.409 142.978 303.566 143.344C303.723 143.711 303.88 144.235 304.142 144.916C304.614 146.226 305.19 148.06 305.819 150.104C306.395 152.095 306.972 153.929 307.338 155.292C307.548 155.92 307.705 156.444 307.81 156.864C307.915 157.23 307.967 157.44 307.967 157.44C307.967 157.44 307.862 157.23 307.705 156.864C307.548 156.497 307.391 155.973 307.129 155.292C306.657 153.982 306.133 152.148 305.504 150.104C304.876 148.113 304.352 146.279 303.932 144.916C303.723 144.288 303.566 143.764 303.461 143.344C303.356 142.978 303.304 142.768 303.304 142.768Z" fill="#E0E0E0"/>
<path d="M308.753 157.545C308.701 157.492 312.474 156.078 317.085 154.453C321.696 152.829 325.469 151.571 325.469 151.624C325.521 151.676 321.749 153.091 317.137 154.715C312.526 156.34 308.753 157.597 308.753 157.545Z" fill="#E0E0E0"/>
<path d="M299.217 177.038C299.217 177.038 299.426 176.985 299.846 176.985C300.317 176.933 300.841 176.933 301.522 176.88C302.937 176.776 304.876 176.671 307.077 176.461C309.225 176.252 311.164 175.99 312.579 175.78C313.26 175.675 313.784 175.623 314.256 175.57C314.675 175.518 314.884 175.518 314.884 175.518C314.884 175.518 314.675 175.57 314.308 175.675C313.941 175.78 313.365 175.885 312.631 175.99C311.216 176.252 309.278 176.514 307.129 176.723C304.981 176.933 302.99 177.038 301.575 177.038C300.841 177.038 300.265 177.038 299.898 177.038C299.426 177.09 299.217 177.09 299.217 177.038Z" fill="#E0E0E0"/>
<path d="M291.357 164.776C291.357 164.776 291.514 164.933 291.724 165.248C291.933 165.562 292.248 165.981 292.615 166.505C293.348 167.606 294.344 169.073 295.444 170.75C296.545 172.426 297.54 173.946 298.221 175.046C298.588 175.623 298.85 176.042 299.06 176.356C299.269 176.671 299.322 176.828 299.322 176.88C299.322 176.88 299.165 176.723 298.955 176.409C298.745 176.094 298.431 175.675 298.064 175.151C297.331 174.051 296.335 172.584 295.235 170.907C294.134 169.23 293.139 167.71 292.457 166.61C292.091 166.034 291.829 165.614 291.619 165.3C291.409 164.986 291.357 164.776 291.357 164.776Z" fill="#E0E0E0"/>
<path d="M280.772 180.968C280.772 180.968 280.929 181.177 281.243 181.544C281.558 181.963 281.925 182.54 282.396 183.168C283.339 184.531 284.649 186.47 286.117 188.618C287.531 190.766 288.841 192.705 289.732 194.12C290.151 194.801 290.518 195.378 290.78 195.797C291.042 196.216 291.147 196.426 291.147 196.426C291.147 196.426 290.99 196.216 290.675 195.849C290.361 195.43 289.994 194.854 289.523 194.225C288.579 192.862 287.269 190.924 285.802 188.775C284.387 186.627 283.077 184.688 282.187 183.273C281.767 182.592 281.401 182.016 281.139 181.596C280.877 181.177 280.719 180.968 280.772 180.968Z" fill="#E0E0E0"/>
<path d="M290.99 195.954C290.99 195.954 291.252 195.902 291.776 195.849C292.352 195.797 293.033 195.744 293.924 195.64C295.706 195.482 298.169 195.22 300.946 194.854C303.671 194.487 306.133 194.12 307.915 193.858C308.753 193.701 309.487 193.596 310.011 193.544C310.535 193.491 310.797 193.439 310.797 193.439C310.797 193.439 310.535 193.544 310.063 193.648C309.592 193.753 308.858 193.91 307.967 194.068C306.186 194.382 303.723 194.801 300.998 195.168C298.273 195.535 295.758 195.744 293.977 195.849C293.086 195.902 292.352 195.954 291.828 195.954C291.252 195.954 290.99 195.954 290.99 195.954Z" fill="#E0E0E0"/>
<path d="M140.602 149.004L40.7273 117.93C38.1597 117.144 36.7449 114.42 37.5309 111.852L56.7093 50.1248C57.4953 47.5572 60.2201 46.1424 62.7877 46.9284L162.662 78.0016C165.23 78.7876 166.644 81.5124 165.858 84.08L146.68 145.807C145.894 148.375 143.169 149.79 140.602 149.004Z" fill="#E0E0E0"/>
<path d="M146.104 90.9444C144.794 95.084 140.392 97.442 136.2 96.132C132.06 94.822 129.702 90.4204 131.012 86.2284C132.322 82.0888 136.724 79.7308 140.916 81.0408C145.108 82.3508 147.414 86.8048 146.104 90.9444Z" fill="white"/>
<path d="M146.68 99.5904C146.208 99.538 145.737 99.4332 145.265 99.276C140.916 97.9136 138.505 93.3024 139.868 89.0056C141.23 84.6564 145.841 82.246 150.138 83.6084C154.487 84.9708 156.898 89.582 155.535 93.8788C154.907 95.9748 153.439 97.704 151.501 98.6996C149.981 99.4856 148.304 99.8 146.68 99.5904ZM148.619 83.9228C145.055 83.4512 141.545 85.652 140.444 89.1628C139.187 93.1452 141.44 97.3896 145.422 98.6472C147.361 99.2236 149.405 99.0664 151.186 98.1232C152.968 97.18 154.278 95.608 154.907 93.6692C156.164 89.6868 153.911 85.4424 149.929 84.1848C149.457 84.08 149.038 83.9752 148.619 83.9228Z" fill="white"/>
<path d="M53.7227 93.8788L51.8363 99.9572L51.2075 99.7476L52.9367 94.2456L51.5219 93.8264L51.6791 93.25L53.7227 93.8788Z" fill="white"/>
<path d="M58.2292 101.32L58.072 101.896L53.8276 100.586L53.9848 100.167L57.286 98.49C58.1768 98.0184 58.4388 97.6516 58.5436 97.2324C58.7532 96.5512 58.3864 95.9224 57.4956 95.6604C56.762 95.4508 56.1856 95.5032 55.6092 95.8176L55.2948 95.2936C55.9236 94.8744 56.762 94.822 57.7052 95.084C58.9104 95.4508 59.5392 96.3416 59.2248 97.3372C59.0676 97.9136 58.7008 98.3852 57.6528 98.9092L54.9804 100.272L58.2292 101.32Z" fill="white"/>
<path d="M64.9363 102.263L63.7311 101.896L63.2595 103.468L62.6307 103.258L63.1023 101.686L59.6963 100.638L59.8535 100.167L64.3075 97.1276L64.9887 97.3372L60.6919 100.272L63.3119 101.11L63.7311 99.6952L64.3599 99.9048L63.9407 101.32L65.1459 101.686L64.9363 102.263Z" fill="white"/>
<path d="M74.2112 105.197L73.006 104.83L72.5344 106.402L71.9056 106.193L72.3772 104.621L68.9712 103.573L69.1284 103.101L73.5824 100.062L74.2636 100.272L69.9668 103.206L72.5868 104.044L73.006 102.63L73.6348 102.839L73.2156 104.254L74.4208 104.621L74.2112 105.197Z" fill="white"/>
<path d="M79.5558 106.612C79.2414 107.66 78.2459 108.236 76.7787 107.765C75.8879 107.503 75.1542 106.926 74.8398 106.298L75.3114 105.878C75.5734 106.402 76.1498 106.926 76.9358 107.136C77.9838 107.45 78.6651 107.136 78.8747 106.402C79.1367 105.616 78.7698 104.988 77.2502 104.516L75.9402 104.097L77.1978 101.162L80.499 102.21L80.3418 102.787L77.5647 101.948L76.7787 103.835L77.5647 104.097C79.451 104.621 79.9226 105.564 79.5558 106.612Z" fill="white"/>
<path d="M85.5821 108.498C85.2153 109.651 84.1149 110.07 82.9097 109.704C81.2853 109.18 80.7613 107.817 81.3901 105.878C82.0189 103.835 83.4861 103.101 85.1105 103.625C85.6345 103.782 86.1585 104.044 86.4205 104.411L86.0013 104.83C85.7393 104.516 85.3726 104.306 84.901 104.202C83.591 103.782 82.4905 104.359 81.9665 106.036C81.9141 106.193 81.8617 106.35 81.8617 106.56C82.3857 105.983 83.1717 105.826 84.0625 106.088C85.3201 106.402 85.8965 107.346 85.5821 108.498ZM84.9533 108.289C85.2153 107.503 84.7962 106.822 83.853 106.507C82.9098 106.245 82.1237 106.612 81.8617 107.346C81.6521 108.027 82.019 108.813 83.067 109.127C83.9578 109.442 84.6913 109.127 84.9533 108.289Z" fill="white"/>
<path d="M93.861 111.118C93.5466 112.114 92.551 112.69 91.0838 112.219C90.193 111.957 89.4594 111.38 89.145 110.752L89.6166 110.332C89.8786 110.856 90.5074 111.38 91.2934 111.642C92.289 111.957 93.0226 111.642 93.2322 110.909C93.4418 110.175 93.075 109.546 91.9746 109.18L91.5554 109.022L91.7126 108.551L94.0706 106.979L90.979 106.036L91.1362 105.459L95.0138 106.664L94.8566 107.084L92.4462 108.708C93.7038 109.284 94.123 110.175 93.861 111.118Z" fill="white"/>
<path d="M99.9396 112.952C99.5728 114.105 98.4724 114.524 97.2672 114.158C95.6428 113.634 95.1188 112.271 95.7476 110.332C96.3764 108.289 97.8436 107.555 99.468 108.079C99.992 108.236 100.516 108.498 100.778 108.865L100.359 109.284C100.097 108.97 99.73 108.76 99.2584 108.656C97.9484 108.236 96.848 108.813 96.324 110.49C96.2716 110.647 96.2192 110.804 96.2192 111.014C96.7432 110.437 97.5816 110.28 98.42 110.542C99.6776 110.856 100.306 111.852 99.9396 112.952ZM99.3108 112.795C99.5728 112.009 99.1536 111.328 98.2104 111.014C97.2672 110.699 96.4812 111.118 96.2192 111.852C96.0096 112.533 96.3764 113.319 97.4244 113.634C98.3152 113.896 99.0488 113.581 99.3108 112.795Z" fill="white"/>
<path d="M106.856 110.437L106.699 110.856L102.402 115.677L101.721 115.468L105.913 110.752L102.822 109.756L102.455 110.909L101.826 110.699L102.35 109.022L106.856 110.437Z" fill="white"/>
<path d="M115.502 113.11L115.345 113.529L111.048 118.35L110.367 118.14L114.559 113.424L111.468 112.428L111.101 113.581L110.472 113.372L110.996 111.695L115.502 113.11Z" fill="white"/>
<path d="M120.113 119.345C119.799 120.393 118.646 120.812 117.231 120.341C115.764 119.869 115.083 118.926 115.45 117.878C115.659 117.144 116.236 116.778 117.074 116.778C116.55 116.358 116.341 115.782 116.55 115.153C116.865 114.158 117.913 113.791 119.17 114.21C120.428 114.629 121.109 115.468 120.795 116.463C120.585 117.092 120.113 117.459 119.432 117.511C120.061 117.983 120.323 118.612 120.113 119.345ZM119.485 119.136C119.694 118.402 119.223 117.721 118.122 117.406C117.074 117.092 116.288 117.354 116.026 118.088C115.817 118.821 116.288 119.502 117.336 119.817C118.437 120.184 119.223 119.922 119.485 119.136ZM118.279 116.882C119.223 117.197 119.904 116.935 120.113 116.254C120.323 115.572 119.851 114.944 118.961 114.682C118.017 114.42 117.336 114.629 117.127 115.31C116.917 115.992 117.336 116.62 118.279 116.882Z" fill="white"/>
<path d="M126.401 119.817C125.773 121.86 124.305 122.594 122.681 122.07C122.157 121.913 121.633 121.651 121.371 121.284L121.79 120.865C122.052 121.179 122.419 121.389 122.891 121.494C124.201 121.913 125.301 121.336 125.825 119.66C125.877 119.502 125.93 119.345 125.93 119.136C125.406 119.712 124.567 119.869 123.729 119.607C122.524 119.24 121.895 118.245 122.262 117.144C122.629 115.992 123.729 115.572 124.934 115.939C126.506 116.516 127.03 117.878 126.401 119.817ZM125.93 118.297C126.139 117.616 125.773 116.83 124.725 116.516C123.834 116.254 123.1 116.568 122.838 117.354C122.576 118.14 122.995 118.821 123.939 119.136C124.882 119.45 125.72 119.083 125.93 118.297Z" fill="white"/>
<path d="M133.476 118.716L131.589 124.795L130.96 124.585L132.69 119.083L131.275 118.664L131.432 118.088L133.476 118.716Z" fill="white"/>
<path d="M138.034 126.157L137.877 126.734L133.633 125.424L133.79 125.004L137.091 123.328C137.982 122.856 138.244 122.489 138.349 122.07C138.558 121.389 138.192 120.76 137.301 120.498C136.567 120.288 135.991 120.341 135.414 120.655L135.1 120.131C135.729 119.712 136.567 119.66 137.51 119.922C138.716 120.288 139.344 121.179 139.03 122.175C138.873 122.751 138.506 123.223 137.458 123.747L134.786 125.109L138.034 126.157Z" fill="white"/>
<path d="M143.799 126.681C143.484 127.677 142.489 128.253 141.021 127.782C140.131 127.52 139.397 126.943 139.083 126.314L139.554 125.895C139.816 126.419 140.445 126.943 141.231 127.205C142.227 127.52 142.96 127.205 143.17 126.472C143.379 125.738 143.013 125.109 141.912 124.742L141.493 124.585L141.65 124.114L144.008 122.542L140.917 121.598L141.074 121.022L144.951 122.227L144.794 122.646L142.384 124.271C143.694 124.847 144.113 125.686 143.799 126.681Z" fill="white"/>
<path d="M95.321 118.415L94.4956 121.066L143.026 136.173L143.852 133.521L95.321 118.415Z" fill="white"/>
<path d="M117.35 131.005L116.525 133.657L141.441 141.413L142.266 138.761L117.35 131.005Z" fill="white"/>
<g opacity="0.5">
<path d="M69.5475 93.0928L54.1419 88.3244C52.7795 87.9052 51.9935 86.438 52.4127 85.0756L55.6091 74.8052C56.0283 73.4428 57.4955 72.6568 58.8579 73.076L74.2635 77.8444C75.6259 78.2636 76.4119 79.7308 75.9927 81.0932L72.7963 91.3636C72.3771 92.726 70.9099 93.512 69.5475 93.0928Z" fill="white"/>
</g>
<path d="M52.9365 83.294L53.2509 82.2984L63.7309 85.5472C64.9361 85.914 66.2461 85.2328 66.6129 84.0276C66.9797 82.8224 66.2985 81.5124 65.0933 81.1456L54.6133 77.8968L54.9277 76.9012L65.4077 80.15C67.1369 80.674 68.1325 82.5604 67.6085 84.2896C67.0845 86.0188 65.1981 87.0144 63.4689 86.4904L52.9365 83.294Z" fill="#AFAFAF"/>
<path d="M67.2401 83.7361L66.9277 84.7365L74.13 86.9858L74.4424 85.9855L67.2401 83.7361Z" fill="#AFAFAF"/>
<path d="M115.066 76.8384L62.6826 60.5276L61.2806 65.0305L113.664 81.3412L115.066 76.8384Z" fill="white"/>
<path d="M78.9269 178.243C80.0273 185.841 74.7349 192.862 67.1369 193.963C59.5389 195.063 52.4649 189.823 51.3645 182.225C50.2641 174.627 55.5565 167.606 63.1545 166.505C70.8049 165.405 77.8265 170.645 78.9269 178.243Z" fill="#F5F5F5"/>
<path d="M75.6782 178.714C76.5166 184.478 72.4818 189.876 66.7178 190.714C60.9014 191.552 55.5566 187.57 54.7182 181.754C53.8798 175.99 57.9146 170.592 63.6786 169.754C69.4426 168.916 74.8398 172.95 75.6782 178.714Z" fill="#EBEBEB"/>
<path d="M75.6258 178.4C75.5734 178.4 75.4686 177.981 75.1542 177.195C74.8398 176.409 74.3682 175.308 73.4774 174.156C73.0058 173.579 72.4818 173.003 71.8006 172.426C71.1194 171.902 70.3858 171.378 69.495 171.012C69.0758 170.802 68.6042 170.645 68.1326 170.488C67.661 170.33 67.137 170.226 66.613 170.173C66.089 170.121 65.565 170.068 65.041 170.068C64.517 170.068 63.9406 170.121 63.4166 170.226C62.8926 170.33 62.3162 170.488 61.8446 170.645C61.3206 170.802 60.849 171.012 60.3774 171.274C59.9058 171.536 59.4866 171.798 59.0674 172.112C58.6482 172.426 58.2814 172.741 57.967 173.055C57.2858 173.736 56.7094 174.47 56.2902 175.204C55.871 175.937 55.5566 176.671 55.2946 177.352C54.823 178.767 54.7706 179.972 54.7706 180.758C54.7706 181.596 54.823 182.068 54.7706 182.068C54.7182 182.068 54.561 181.649 54.4562 180.758C54.3514 179.92 54.3514 178.662 54.7706 177.142C54.9802 176.409 55.2946 175.623 55.7138 174.784C56.133 173.998 56.7094 173.16 57.443 172.426C57.8098 172.06 58.1766 171.693 58.6482 171.378C59.0674 171.064 59.539 170.75 60.063 170.488C60.5346 170.226 61.0586 169.964 61.635 169.806C62.159 169.597 62.7354 169.44 63.3642 169.335C63.9406 169.23 64.517 169.178 65.1458 169.178C65.7222 169.178 66.2986 169.23 66.875 169.282C67.4514 169.335 67.9754 169.492 68.4994 169.649C69.0234 169.806 69.495 170.016 69.9666 170.226C70.9098 170.645 71.6958 171.221 72.377 171.798C73.0582 172.374 73.6346 173.055 74.0538 173.684C74.9446 174.942 75.3638 176.147 75.5734 176.985C75.6782 177.928 75.6782 178.4 75.6258 178.4Z" fill="#E0E0E0"/>
<path d="M66.7666 182.318L59.9608 183.377L59.6604 181.445L66.4214 180.393C66.9938 180.304 67.442 180.143 67.7659 179.91C68.0889 179.67 68.3059 179.377 68.4168 179.03C68.5268 178.677 68.5489 178.289 68.483 177.865C68.4218 177.472 68.2813 177.118 68.0616 176.804C67.8418 176.49 67.5427 176.256 67.1645 176.101C66.7922 175.945 66.3348 175.91 65.7922 175.994L63.2524 176.389L64.9742 187.461L62.5148 187.843L60.4898 174.822L65.4801 174.046C66.4996 173.887 67.3949 173.931 68.166 174.178C68.9371 174.424 69.5621 174.831 70.041 175.397C70.5259 175.963 70.8314 176.651 70.9575 177.462C71.091 178.321 71.0088 179.088 70.7108 179.763C70.4188 180.437 69.9375 180.995 69.2671 181.435C68.6017 181.868 67.7682 182.162 66.7666 182.318ZM67.255 183.103L67.5569 185.044L60.3934 186.158L60.0916 184.217L67.255 183.103Z" fill="#E0E0E0"/>
<path d="M286.797 184.007C285.802 185.474 283.811 185.002 282.867 184.112C281.977 183.221 281.557 181.963 281.191 180.706C280.405 177.928 279.566 174.994 280.195 172.112C280.352 171.274 280.667 170.435 281.295 169.754C281.872 169.125 282.815 168.758 283.653 168.968C284.649 169.23 285.278 170.226 285.697 171.116C287.007 173.841 287.688 176.88 287.741 179.867C287.793 181.387 287.636 182.854 286.797 184.007Z" fill="#F9F9F9"/>
<g opacity="0.2">
<path d="M286.797 184.007C285.802 185.474 283.811 185.002 282.867 184.112C281.977 183.221 281.557 181.963 281.191 180.706C280.405 177.928 279.566 174.994 280.195 172.112C280.352 171.274 280.667 170.435 281.295 169.754C281.872 169.125 282.815 168.758 283.653 168.968C284.649 169.23 285.278 170.226 285.697 171.116C287.007 173.841 287.688 176.88 287.741 179.867C287.793 181.387 287.636 182.854 286.797 184.007Z" fill="black"/>
</g>
<path d="M283.025 191.395C281.348 190.557 279.409 190.452 277.575 190.714C276.579 190.871 275.531 191.186 274.903 191.919C274.221 192.653 274.117 193.963 274.85 194.592C275.322 194.958 275.951 195.011 276.527 195.011C277.994 195.011 279.566 194.749 280.719 195.587C281.4 196.059 281.819 196.897 282.605 197.159C283.391 197.421 284.23 196.95 284.649 196.268C285.068 195.587 285.068 194.696 284.859 193.91C284.859 193.963 284.701 192.234 283.025 191.395Z" fill="#F9F9F9"/>
<path d="M289.627 186.103C288.527 184.793 288.317 182.906 288.789 181.23C289.26 179.605 290.413 178.19 291.671 177.038C293.19 175.728 294.919 174.68 296.806 173.998C297.539 173.736 298.325 173.527 299.111 173.579C299.897 173.632 300.683 174.051 301.05 174.732C301.574 175.78 301.05 177.038 300.526 178.033C299.531 179.815 298.378 181.544 297.12 183.168C296.125 184.478 294.919 185.788 293.4 186.365C291.828 186.941 290.256 186.889 289.417 185.788" fill="#F9F9F9"/>
<path d="M286.902 205.91C286.902 205.91 286.85 205.7 286.797 205.229C286.745 204.757 286.692 204.128 286.64 203.447C286.535 202.714 286.43 201.77 286.221 200.827C286.011 199.832 285.697 198.784 285.278 197.736C284.858 196.688 284.334 195.692 283.706 194.906C283.077 194.12 282.396 193.544 281.714 193.229C281.033 192.915 280.457 192.758 280.038 192.705C279.618 192.653 279.356 192.653 279.356 192.6C279.356 192.6 279.566 192.6 280.038 192.6C280.457 192.653 281.086 192.758 281.819 193.072C282.553 193.386 283.286 193.963 283.915 194.749C284.544 195.535 285.12 196.53 285.54 197.631C285.959 198.731 286.273 199.779 286.483 200.775C286.692 201.77 286.797 202.661 286.85 203.447C286.902 204.233 286.954 204.81 286.954 205.281C286.902 205.7 286.902 205.91 286.902 205.91Z" fill="#263238"/>
<path d="M286.745 204.548C286.745 204.548 286.745 204.443 286.745 204.233C286.745 204.024 286.745 203.709 286.745 203.342C286.745 202.609 286.745 201.508 286.693 200.146C286.64 197.421 286.378 193.701 285.959 189.561C285.488 185.422 284.911 181.754 284.335 179.081C284.23 178.4 284.073 177.824 283.968 177.3C283.863 176.776 283.758 176.304 283.654 175.937C283.549 175.57 283.496 175.308 283.444 175.099C283.392 174.889 283.392 174.784 283.392 174.784C283.392 174.784 283.444 174.889 283.496 175.046C283.549 175.256 283.654 175.518 283.758 175.885C283.863 176.252 283.968 176.723 284.125 177.247C284.282 177.771 284.387 178.348 284.544 179.029C285.121 181.701 285.802 185.369 286.221 189.509C286.693 193.648 286.902 197.369 286.902 200.094C286.902 201.456 286.902 202.556 286.85 203.29C286.85 203.657 286.798 203.919 286.798 204.181C286.798 204.443 286.745 204.548 286.745 204.548Z" fill="#263238"/>
<path d="M286.745 197.264C286.745 197.264 286.745 196.95 286.745 196.373C286.798 195.797 286.85 194.958 287.007 193.91C287.164 192.862 287.426 191.657 287.793 190.295C288.16 188.932 288.684 187.518 289.313 186.05C290.57 183.064 292.247 180.653 293.767 179.134C294.134 178.714 294.5 178.452 294.815 178.19C294.972 178.033 295.129 177.928 295.234 177.824C295.391 177.719 295.496 177.614 295.653 177.562C296.125 177.247 296.387 177.038 296.439 177.09C296.492 177.142 295.339 177.824 293.924 179.343C292.509 180.863 290.832 183.273 289.627 186.208C288.998 187.675 288.474 189.09 288.108 190.452C287.688 191.762 287.426 193.02 287.269 194.015C287.06 195.063 286.955 195.902 286.902 196.478C286.798 196.95 286.745 197.264 286.745 197.264Z" fill="#263238"/>
<path d="M172.88 155.711L91.7647 69.932C90.9263 69.0412 90.9263 67.6264 91.8695 66.7356L145.108 16.4316C145.999 15.5932 147.414 15.5932 148.304 16.5364L229.42 102.315C230.258 103.206 230.258 104.621 229.315 105.512L176.076 155.816C175.186 156.654 173.718 156.602 172.88 155.711Z" fill="#F9F9F9"/>
<g opacity="0.3">
<path d="M172.88 155.711L91.7647 69.932C90.9263 69.0412 90.9263 67.6264 91.8695 66.7356L145.108 16.4316C145.999 15.5932 147.414 15.5932 148.304 16.5364L229.42 102.315C230.258 103.206 230.258 104.621 229.315 105.512L176.076 155.816C175.186 156.654 173.718 156.602 172.88 155.711Z" fill="black"/>
</g>
<path d="M228.791 101.686L148.881 17.1128C147.676 15.8552 145.737 15.8028 144.479 17.008L129.336 31.3132C129.021 31.5752 128.864 31.9944 128.969 32.4136C130.488 40.85 136.514 48.448 143.746 53.426C152.444 59.5044 162.767 62.6484 172.566 66.7356C182.364 70.7704 192.216 76.1152 198.084 84.9184C203.639 93.25 204.949 103.573 207.778 113.214C208.512 115.782 209.455 118.35 210.608 120.865C210.975 121.651 211.97 121.86 212.599 121.232L228.634 106.088C229.944 104.883 229.996 102.944 228.791 101.686Z" fill="#F9F9F9"/>
<path d="M129.545 57.4084L128.811 56.6224L127.816 57.5656L127.449 57.1464L128.444 56.2032L126.401 54.0548L126.663 53.7928L131.117 53.426L131.536 53.8452L127.187 54.212L128.759 55.8888L129.65 55.0504L130.016 55.4172L129.126 56.2556L129.859 57.0416L129.545 57.4084Z" fill="white"/>
<path d="M132.322 60.1332C131.693 60.762 130.75 60.762 129.859 59.8188C129.335 59.2424 129.021 58.5612 129.021 57.9848L129.493 57.88C129.493 58.3516 129.702 58.9804 130.174 59.5044C130.75 60.1332 131.379 60.1856 131.903 59.7664C132.375 59.3472 132.375 58.7184 131.693 57.9848L131.431 57.7228L131.746 57.4608L134.104 57.2512L132.27 55.3124L132.637 54.998L134.995 57.4608L134.733 57.7228L132.322 57.9324C133.003 58.7184 132.951 59.5568 132.322 60.1332Z" fill="white"/>
<path d="M135.309 63.2248C134.68 63.8536 133.737 63.8536 132.846 62.9104C132.322 62.334 132.007 61.6528 132.06 61.0764L132.531 60.9716C132.531 61.4432 132.741 62.072 133.213 62.596C133.841 63.2248 134.47 63.2772 134.942 62.858C135.413 62.3864 135.466 61.81 134.523 60.8144L133.737 59.976L135.833 58.3516L137.824 60.4476L137.457 60.762L135.78 59.0328L134.418 60.0808L134.889 60.5524C135.99 61.7052 135.99 62.5436 135.309 63.2248Z" fill="white"/>
<path d="M138.505 66.5784C137.772 67.2596 136.776 67.1024 136.095 66.3688C135.152 65.3732 135.309 64.1156 136.514 62.9628C137.824 61.7052 139.187 61.81 140.182 62.858C140.497 63.2248 140.759 63.5916 140.811 63.9584L140.339 64.1156C140.287 63.8012 140.077 63.4868 139.815 63.2248C139.029 62.3864 137.981 62.3864 136.933 63.3296C136.829 63.4344 136.724 63.5392 136.619 63.644C137.248 63.4344 137.877 63.644 138.401 64.2204C139.134 64.954 139.187 65.8972 138.505 66.5784ZM138.139 66.2116C138.663 65.74 138.61 65.0588 138.034 64.4824C137.457 63.906 136.724 63.8536 136.252 64.2728C135.833 64.692 135.781 65.4256 136.409 66.0544C136.933 66.5784 137.615 66.6832 138.139 66.2116Z" fill="white"/>
<path d="M145.212 75.958L145.579 73.9144L143.483 74.124L143.064 73.7048L145.632 73.4428L145.998 71.0324L146.418 71.4516L146.103 73.3904L148.042 73.1808L148.461 73.6L146.051 73.862L145.684 76.4296L145.212 75.958Z" fill="white"/>
<path d="M147.937 78.8924L148.304 76.8488L146.208 77.0584L145.789 76.6392L148.357 76.3772L148.723 73.9668L149.143 74.386L148.828 76.3248L150.767 76.1152L151.186 76.5344L148.776 76.7964L148.409 79.364L147.937 78.8924Z" fill="white"/>
<path d="M150.714 81.8268L151.081 79.7832L148.985 79.9928L148.566 79.5736L151.134 79.3116L151.5 76.9012L151.92 77.3204L151.605 79.2592L153.544 79.0496L153.963 79.4688L151.553 79.7308L151.186 82.2984L150.714 81.8268Z" fill="white"/>
<path d="M153.492 84.7088L153.858 82.6652L151.762 82.8748L151.343 82.4556L153.911 82.1936L154.278 79.7832L154.697 80.2024L154.382 82.1412L156.321 81.9316L156.74 82.3508L154.33 82.6128L153.963 85.1804L153.492 84.7088Z" fill="white"/>
<path d="M163.081 94.822L163.448 92.7784L161.352 92.988L160.933 92.5688L163.5 92.3068L163.867 89.8964L164.286 90.3156L163.972 92.2544L165.911 92.0448L166.33 92.464L163.919 92.726L163.553 95.2936L163.081 94.822Z" fill="white"/>
<path d="M165.806 97.7564L166.172 95.7128L164.076 95.9224L163.657 95.5032L166.225 95.2412L166.592 92.8308L167.011 93.25L166.696 95.1888L168.635 94.9792L169.054 95.3984L166.644 95.6604L166.277 98.228L165.806 97.7564Z" fill="white"/>
<path d="M168.583 100.691L168.95 98.6472L166.854 98.8568L166.435 98.4376L169.002 98.1756L169.369 95.7652L169.788 96.1844L169.474 98.1232L171.413 97.9136L171.832 98.3328L169.421 98.5948L169.055 101.162L168.583 100.691Z" fill="white"/>
<path d="M171.36 103.625L171.727 101.582L169.631 101.791L169.212 101.372L171.78 101.11L172.146 98.6996L172.566 99.1188L172.251 101.058L174.19 100.848L174.609 101.267L172.199 101.529L171.832 104.097L171.36 103.625Z" fill="white"/>
<path d="M183.779 109.075L179.954 112.69L179.587 112.271L183.098 108.97L182.259 108.079L182.626 107.765L183.779 109.075Z" fill="white"/>
<path d="M184.303 115.101C183.674 115.73 182.731 115.73 181.84 114.786C181.316 114.21 181.001 113.529 181.001 112.952L181.473 112.848C181.473 113.319 181.683 113.948 182.154 114.472C182.731 115.101 183.359 115.153 183.883 114.734C184.355 114.315 184.355 113.686 183.674 112.952L183.412 112.69L183.726 112.428L186.084 112.219L184.25 110.28L184.617 109.966L186.975 112.428L186.713 112.69L184.303 112.9C184.984 113.686 184.931 114.524 184.303 115.101Z" fill="white"/>
<path d="M187.814 119.031L187.08 118.245L186.085 119.188L185.718 118.769L186.714 117.826L184.67 115.677L184.932 115.415L189.386 115.048L189.805 115.468L185.456 115.834L187.028 117.511L187.919 116.673L188.286 117.04L187.395 117.878L188.128 118.664L187.814 119.031Z" fill="white"/>
<path d="M189.962 122.594L189.595 122.908L187.028 120.236L187.29 119.974L190.381 120.079C191.22 120.131 191.534 119.922 191.796 119.712C192.215 119.293 192.215 118.716 191.639 118.14C191.22 117.668 190.748 117.459 190.224 117.511V116.987C190.853 116.935 191.482 117.249 192.058 117.826C192.792 118.612 192.844 119.45 192.215 120.079C191.849 120.446 191.429 120.603 190.434 120.603L187.919 120.498L189.962 122.594Z" fill="white"/>
<path d="M115.607 60.6048C116.183 60.0808 116.969 60.1332 117.493 60.7096C117.807 61.024 117.912 61.3908 117.86 61.7576L117.336 61.7052C117.336 61.4432 117.283 61.2336 117.126 61.024C116.812 60.6572 116.34 60.6572 115.973 60.9716C115.607 61.286 115.607 61.7576 115.921 62.1244C116.078 62.2816 116.288 62.3864 116.55 62.3864V62.9104C116.183 62.9628 115.816 62.8056 115.502 62.4388C115.03 61.9148 115.03 61.0764 115.607 60.6048Z" fill="white"/>
<path d="M118.07 64.2728L117.284 63.4344L116.76 63.644L116.34 63.2248L118.96 62.334L119.38 62.7532L118.332 65.3208L117.86 64.7968L118.07 64.2728ZM118.279 63.8536L118.698 62.9104L117.703 63.2772L118.279 63.8536Z" fill="white"/>
<path d="M119.537 66.6308L119.694 65.7924L119.327 65.4256L118.803 65.8972L118.384 65.478L120.218 63.7488L120.951 64.5348C121.423 65.0064 121.475 65.5828 121.056 65.9496C120.794 66.2116 120.427 66.264 120.113 66.1068L119.903 67.05L119.537 66.6308ZM120.689 64.7968L120.375 64.43L119.746 65.0588L120.061 65.4256C120.323 65.6876 120.532 65.6876 120.742 65.5304C120.899 65.3208 120.899 65.0588 120.689 64.7968Z" fill="white"/>
<path d="M120.323 67.05L120.794 66.8928C120.847 67.1548 120.952 67.4692 121.161 67.6788C121.423 67.9408 121.58 67.9408 121.685 67.836C122.052 67.5216 120.794 66.6832 121.476 66.002C121.79 65.6876 122.262 65.74 122.786 66.2116C122.995 66.4212 123.152 66.7356 123.205 66.9976L122.786 67.1548C122.733 66.8928 122.628 66.6832 122.471 66.526C122.209 66.264 122.052 66.264 121.947 66.3688C121.633 66.6832 122.838 67.5216 122.157 68.1504C121.842 68.4648 121.371 68.4124 120.847 67.8884C120.532 67.7312 120.323 67.3644 120.323 67.05Z" fill="white"/>
<path d="M125.982 69.7224L124.148 71.4516L123.729 71.0324L124.462 70.2988L123.676 69.4604L122.943 70.194L122.523 69.7748L124.357 68.0456L124.777 68.4648L124.043 69.146L124.829 69.9844L125.563 69.3032L125.982 69.7224Z" fill="white"/>
<path d="M125.353 70.9276C125.877 70.4036 126.715 70.456 127.239 71.0324C127.763 71.6088 127.763 72.3948 127.239 72.9188C126.715 73.4428 125.877 73.3904 125.353 72.814C124.829 72.2376 124.829 71.4516 125.353 70.9276ZM126.873 72.4996C127.239 72.1852 127.239 71.7136 126.925 71.3992C126.611 71.0848 126.139 71.0324 125.772 71.3992C125.405 71.7136 125.405 72.1852 125.72 72.552C126.034 72.814 126.506 72.814 126.873 72.4996Z" fill="white"/>
<path d="M128.497 72.3948L128.916 72.814L127.449 74.2288L128.34 75.172L127.973 75.4864L126.715 74.124L128.497 72.3948Z" fill="white"/>
<path d="M129.964 73.9668L130.75 74.8052C131.327 75.3816 131.327 76.1676 130.803 76.6916C130.226 77.2156 129.493 77.1632 128.916 76.5344L128.13 75.696L129.964 73.9668ZM129.283 76.1676C129.65 76.5344 130.069 76.5868 130.436 76.22C130.803 75.9056 130.803 75.434 130.436 75.0672L130.069 74.7004L128.916 75.7484L129.283 76.1676Z" fill="white"/>
<path d="M131.851 78.9448L131.536 79.2592L130.174 77.8444L132.008 76.1152L133.318 77.4776L133.003 77.792L132.113 76.8488L131.693 77.2156L132.479 78.054L132.165 78.3684L131.379 77.53L130.96 77.9492L131.851 78.9448Z" fill="white"/>
<path d="M132.951 80.7788L133.108 79.9404L132.742 79.5736L132.218 80.0452L131.798 79.626L133.632 77.8968L134.366 78.6828C134.838 79.1544 134.89 79.7308 134.471 80.0976C134.209 80.3596 133.842 80.412 133.528 80.2548L133.318 81.198L132.951 80.7788ZM134.052 78.9972L133.737 78.6304L133.108 79.2592L133.423 79.626C133.685 79.888 133.894 79.888 134.104 79.7308C134.314 79.4688 134.314 79.2592 134.052 78.9972Z" fill="white"/>
<path d="M108.271 67.1548L109.266 67.1024C109.214 67.5216 109.266 67.8884 109.476 68.1504C109.79 68.4648 110.157 68.4648 110.524 68.098L112.201 66.526L111.048 65.2684L111.729 64.6396L113.668 66.6832L111.362 68.8316C110.471 69.67 109.633 69.6176 108.847 68.7792C108.375 68.3076 108.166 67.7312 108.271 67.1548Z" fill="white"/>
<path d="M111.048 70.0892C111.362 69.8272 111.729 69.8272 111.991 70.1416C112.253 70.4036 112.253 70.8228 111.991 71.0848C111.729 71.3468 111.31 71.3468 111.048 71.0848C110.733 70.7704 110.733 70.3512 111.048 70.0892Z" fill="white"/>
<path d="M120.428 73.9144L115.816 76.1152L114.978 75.2244L116.655 72.1852L113.511 73.6524L112.672 72.7616L115.083 68.2552L115.869 69.0936L114.14 72.2376L117.388 70.718L118.122 71.4516L116.393 74.5956L119.694 73.076L120.428 73.9144Z" fill="white"/>
<path d="M120.794 74.2288C121.056 74.0192 121.423 74.0192 121.685 74.2812C121.947 74.5956 121.947 74.9624 121.738 75.172C121.476 75.434 121.109 75.3816 120.847 75.1196C120.532 74.8576 120.532 74.4908 120.794 74.2288ZM120.061 75.1196L120.794 75.9056L118.07 78.4732L117.336 77.6872L120.061 75.1196Z" fill="white"/>
<path d="M122.524 75.6436L123.257 76.4296L119.537 79.9404L118.803 79.1544L122.524 75.6436Z" fill="white"/>
<path d="M123.938 77.1632L124.672 77.9492L120.951 81.46L120.218 80.674L123.938 77.1632Z" fill="white"/>
<path d="M125.091 78.7876C125.353 78.578 125.72 78.578 125.982 78.84C126.244 79.1544 126.244 79.5212 126.034 79.7308C125.772 79.9928 125.406 79.9404 125.144 79.6784C124.829 79.4164 124.829 79.0496 125.091 78.7876ZM124.358 79.6784L125.091 80.4644L122.366 83.032L121.633 82.246L124.358 79.6784Z" fill="white"/>
<path d="M126.873 84.6564L125.301 86.1236L124.62 85.39L124.934 85.0756C124.567 85.1804 124.148 85.0232 123.781 84.604C123.205 83.9752 123.152 83.2416 123.624 82.8224C124.096 82.3508 124.777 82.4032 125.51 83.2416L126.087 83.8704C126.401 83.556 126.454 83.1892 126.034 82.7176C125.772 82.4556 125.406 82.246 125.039 82.1936L125.301 81.4076C125.772 81.5124 126.349 81.8268 126.716 82.246C127.659 83.0844 127.711 83.9228 126.873 84.6564ZM125.458 84.5516L125.72 84.2896L125.196 83.7656C124.829 83.3988 124.62 83.3988 124.41 83.556C124.2 83.7656 124.253 84.0276 124.515 84.2896C124.777 84.604 125.144 84.7088 125.458 84.5516Z" fill="white"/>
<path d="M131.903 89.9488L130.331 91.416L129.597 90.63L131.012 89.2676C131.431 88.8484 131.484 88.4816 131.169 88.1672C130.855 87.8004 130.383 87.8004 129.912 88.2196L128.549 89.5296L127.816 88.7436L129.231 87.3812C129.65 86.962 129.702 86.5952 129.388 86.2808C129.073 85.914 128.602 85.914 128.13 86.3332L126.768 87.6432L126.034 86.8572L128.759 84.2896L129.493 85.0232L129.178 85.3376C129.597 85.3376 130.017 85.4948 130.331 85.8616C130.698 86.2284 130.855 86.7 130.75 87.1716C131.222 87.1192 131.746 87.3288 132.113 87.748C132.637 88.3768 132.741 89.1628 131.903 89.9488Z" fill="white"/>
<path d="M131.012 91.6256L131.851 91.3636C131.903 91.7304 132.165 92.202 132.479 92.5688C132.846 92.9356 133.056 92.988 133.213 92.8308C133.632 92.4116 131.641 91.2064 132.741 90.1584C133.265 89.6868 134.051 89.7916 134.785 90.5776C135.152 90.9444 135.466 91.4684 135.519 91.8352L134.733 92.0972C134.628 91.678 134.418 91.3636 134.209 91.1016C133.894 90.7348 133.632 90.6824 133.475 90.8396C133.003 91.2588 134.995 92.5164 133.947 93.512C133.423 93.9836 132.637 93.8788 131.851 93.0404C131.379 92.6212 131.065 92.0448 131.012 91.6256Z" fill="white"/>
<path d="M162.295 121.913C163.448 120.812 164.706 120.812 165.544 121.703C166.382 122.594 166.33 123.852 165.125 124.952C163.972 126.052 162.714 126.052 161.876 125.162C161.09 124.323 161.142 123.013 162.295 121.913ZM164.391 124.166C165.177 123.432 165.282 122.804 164.863 122.384C164.496 121.965 163.867 122.018 163.081 122.751C162.295 123.485 162.19 124.114 162.61 124.533C162.976 124.952 163.605 124.9 164.391 124.166Z" fill="white"/>
<path d="M167.64 128.882C166.906 129.563 165.911 129.406 165.177 128.672C164.234 127.677 164.286 126.524 165.439 125.424C166.644 124.271 168.059 124.376 169.055 125.424C169.421 125.79 169.683 126.262 169.736 126.629L168.845 126.891C168.793 126.576 168.635 126.314 168.373 126.052C167.797 125.476 167.116 125.424 166.435 126.052C166.854 126.052 167.221 126.262 167.587 126.629C168.269 127.31 168.321 128.253 167.64 128.882ZM166.854 128.148C167.168 127.834 167.168 127.415 166.801 127.048C166.487 126.681 166.015 126.629 165.701 126.943C165.387 127.205 165.387 127.677 165.753 128.044C166.12 128.41 166.539 128.41 166.854 128.148Z" fill="white"/>
<path d="M172.356 127.572L173.037 128.253L166.697 131.083L166.016 130.402L172.356 127.572Z" fill="white"/>
<path d="M171.884 134.279L171.203 134.908L168.688 132.236L169.212 131.712L171.78 131.869C172.356 131.921 172.618 131.764 172.775 131.607C173.037 131.345 173.037 130.978 172.67 130.611C172.408 130.297 172.042 130.14 171.622 130.192L171.465 129.249C172.146 129.144 172.828 129.406 173.456 130.035C174.19 130.821 174.295 131.712 173.666 132.34C173.299 132.655 172.932 132.864 171.989 132.812L170.47 132.707L171.884 134.279Z" fill="white"/>
<path d="M175.29 137.685L174.766 137.109L174.033 137.79L173.299 137.004L174.033 136.323L172.251 134.436L172.775 133.912L176.6 133.441L177.386 134.279L173.823 134.751L174.714 135.694L175.395 135.065L176.129 135.851L175.447 136.48L175.971 137.056L175.29 137.685Z" fill="white"/>
<path d="M191.849 94.0884C193.84 91.0492 193.054 86.962 190.381 84.4992C189.543 83.7132 188.6 83.0844 187.604 82.6652C185.037 81.6172 181.683 82.4032 180.321 84.8136C179.22 86.8048 179.692 89.2676 180.425 91.3636C181.211 93.5644 182.521 95.87 184.722 96.7084C186.818 97.5468 189.386 96.7608 190.958 95.1364C191.325 94.822 191.587 94.4552 191.849 94.0884Z" fill="#F9F9F9"/>
<path d="M249.594 104.464V196.688C249.594 201.718 245.507 205.805 240.476 205.805H106.437C101.407 205.805 97.3193 201.718 97.3193 196.688V104.464C97.3193 99.4332 101.407 95.346 106.437 95.346H240.424C245.507 95.346 249.594 99.4332 249.594 104.464Z" fill="#F9F9F9"/>
<path d="M249.594 104.464C249.594 104.464 249.594 104.359 249.594 104.149C249.594 103.94 249.594 103.625 249.489 103.154C249.384 102.315 249.07 101.005 248.126 99.5904C247.655 98.9092 247.078 98.1232 246.24 97.4944C245.454 96.8132 244.458 96.2368 243.253 95.87C242.939 95.7652 242.677 95.7128 242.362 95.608C242.048 95.5556 241.734 95.5032 241.419 95.4508C241.105 95.4508 240.738 95.3984 240.424 95.3984C240.057 95.3984 239.742 95.3984 239.376 95.3984C237.961 95.3984 236.441 95.3984 234.817 95.3984C221.926 95.3984 203.22 95.3984 180.164 95.4508C168.636 95.4508 156.007 95.4508 142.436 95.4508C135.676 95.4508 128.654 95.4508 121.423 95.4508C117.808 95.4508 114.14 95.4508 110.419 95.4508C109.476 95.4508 108.533 95.4508 107.642 95.4508C106.699 95.4508 105.756 95.3984 104.865 95.608C103.974 95.7652 103.083 96.0796 102.245 96.5512C101.406 97.0228 100.673 97.5992 100.044 98.228C99.3628 98.9092 98.8388 99.6952 98.4196 100.534C98.0004 101.372 97.7384 102.315 97.5812 103.258C97.4764 104.202 97.4764 105.145 97.4764 106.14C97.4764 107.136 97.4764 108.079 97.4764 109.075C97.4764 113.005 97.4764 116.935 97.4764 120.917C97.4764 128.882 97.4764 137.056 97.4764 145.336C97.4764 161.946 97.4764 179.134 97.4764 196.688C97.4764 198.836 98.2624 200.984 99.7296 202.609C101.144 204.233 103.136 205.334 105.284 205.596C106.332 205.753 107.432 205.7 108.533 205.7C109.633 205.7 110.681 205.7 111.782 205.7C113.93 205.7 116.078 205.7 118.227 205.7C126.82 205.7 135.257 205.7 143.536 205.7C160.147 205.7 176.129 205.7 191.377 205.7C206.626 205.7 221.14 205.7 234.66 205.7C236.336 205.7 238.013 205.7 239.69 205.7C240.528 205.7 241.367 205.7 242.153 205.543C242.939 205.386 243.725 205.124 244.458 204.757C244.825 204.6 245.14 204.338 245.506 204.181C245.821 203.919 246.188 203.709 246.45 203.447C247.078 202.923 247.55 202.294 248.022 201.666C248.86 200.356 249.384 198.784 249.489 197.264C249.541 190.976 249.489 184.95 249.541 179.186C249.541 156.13 249.594 137.476 249.594 124.533C249.594 118.088 249.594 113.057 249.594 109.704C249.594 108.027 249.594 106.717 249.594 105.826C249.594 104.935 249.594 104.464 249.594 104.464C249.594 104.464 249.594 104.935 249.594 105.774C249.594 106.664 249.594 107.922 249.594 109.651C249.594 113.057 249.594 118.035 249.594 124.48C249.594 137.371 249.594 156.025 249.646 179.134C249.646 184.898 249.698 190.924 249.646 197.264C249.594 198.836 249.017 200.408 248.179 201.77C247.707 202.452 247.183 203.08 246.554 203.604C246.24 203.919 245.926 204.128 245.611 204.39C245.244 204.6 244.93 204.862 244.511 205.019C243.777 205.386 242.991 205.648 242.153 205.805C241.314 205.962 240.476 205.962 239.638 205.962C237.961 205.962 236.284 205.962 234.607 205.962C221.036 205.962 206.573 205.962 191.325 205.962C176.076 205.962 160.042 205.962 143.484 205.962C135.204 205.962 126.716 205.962 118.174 205.962C116.026 205.962 113.878 205.962 111.729 205.962C110.629 205.962 109.581 205.962 108.48 205.962C107.38 205.962 106.332 206.015 105.232 205.858C103.031 205.596 100.987 204.443 99.52 202.766C98.0528 201.089 97.2144 198.888 97.2144 196.635C97.2144 179.029 97.2144 161.842 97.2144 145.283C97.2144 137.004 97.2144 128.83 97.2144 120.865C97.2144 116.882 97.2144 112.9 97.2144 109.022C97.2144 108.027 97.2144 107.084 97.2144 106.088C97.2144 105.145 97.162 104.149 97.3192 103.154C97.424 102.158 97.7384 101.215 98.1576 100.376C98.5768 99.4856 99.1532 98.6996 99.8344 98.0184C100.516 97.3372 101.302 96.7608 102.14 96.2892C102.978 95.8176 103.922 95.5032 104.865 95.346L105.546 95.2412L106.28 95.1888C106.751 95.1364 107.223 95.1888 107.694 95.1888C108.638 95.1888 109.581 95.1888 110.472 95.1888C114.192 95.1888 117.86 95.1888 121.476 95.1888C128.707 95.1888 135.728 95.1888 142.488 95.1888C156.06 95.1888 168.688 95.1888 180.216 95.1888C203.272 95.1888 221.926 95.2412 234.869 95.2412C236.494 95.2412 238.013 95.2412 239.428 95.2412C239.795 95.2412 240.162 95.2412 240.476 95.2412C240.843 95.2412 241.157 95.2936 241.524 95.2936C241.838 95.346 242.205 95.3984 242.52 95.4508C242.834 95.5556 243.148 95.608 243.463 95.7128C244.668 96.0796 245.664 96.7084 246.45 97.3896C247.236 98.0708 247.864 98.8044 248.336 99.538C249.227 101.005 249.541 102.263 249.646 103.154C249.751 103.573 249.698 103.94 249.751 104.149C249.594 104.359 249.594 104.464 249.594 104.464Z" fill="#263238"/>
<path d="M244.249 102.158C244.249 102.106 244.93 102.001 245.821 102.001C246.711 102.001 247.393 102.053 247.393 102.158C247.393 102.263 246.711 102.315 245.821 102.315C244.93 102.263 244.249 102.21 244.249 102.158Z" fill="#263238"/>
<path d="M231.411 102.158C231.411 102.106 232.825 102.001 234.607 102.001C236.389 102.001 237.803 102.053 237.803 102.158C237.803 102.263 236.389 102.315 234.607 102.315C232.878 102.263 231.411 102.21 231.411 102.158Z" fill="#263238"/>
<path d="M218.572 102.158C218.572 102.106 219.987 102.001 221.769 102.001C223.55 102.001 224.965 102.053 224.965 102.158C224.965 102.263 223.55 102.315 221.769 102.315C220.039 102.263 218.572 102.21 218.572 102.158Z" fill="#263238"/>
<path d="M205.787 102.158C205.787 102.106 207.202 102.001 208.984 102.001C210.765 102.001 212.18 102.053 212.18 102.158C212.18 102.263 210.765 102.315 208.984 102.315C207.202 102.263 205.787 102.21 205.787 102.158Z" fill="#263238"/>
<path d="M192.949 102.158C192.949 102.106 194.364 102.001 196.145 102.001C197.927 102.001 199.342 102.053 199.342 102.158C199.342 102.263 197.927 102.315 196.145 102.315C194.364 102.263 192.949 102.21 192.949 102.158Z" fill="#263238"/>
<path d="M180.111 102.158C180.111 102.106 181.526 102.001 183.307 102.001C185.089 102.001 186.504 102.053 186.504 102.158C186.504 102.263 185.089 102.315 183.307 102.315C181.578 102.263 180.111 102.21 180.111 102.158Z" fill="#263238"/>
<path d="M167.273 102.158C167.273 102.106 168.688 102.001 170.469 102.001C172.251 102.001 173.666 102.053 173.666 102.158C173.666 102.263 172.251 102.315 170.469 102.315C168.74 102.263 167.273 102.21 167.273 102.158Z" fill="#263238"/>
<path d="M154.487 102.158C154.487 102.106 155.902 102.001 157.684 102.001C159.465 102.001 160.88 102.053 160.88 102.158C160.88 102.263 159.465 102.315 157.684 102.315C155.902 102.263 154.487 102.21 154.487 102.158Z" fill="#263238"/>
<path d="M141.649 102.158C141.649 102.106 143.064 102.001 144.846 102.001C146.627 102.001 148.042 102.053 148.042 102.158C148.042 102.263 146.627 102.315 144.846 102.315C143.064 102.263 141.649 102.21 141.649 102.158Z" fill="#263238"/>
<path d="M128.812 102.158C128.812 102.106 130.226 102.001 132.008 102.001C133.79 102.001 135.204 102.053 135.204 102.158C135.204 102.263 133.79 102.315 132.008 102.315C130.226 102.263 128.812 102.21 128.812 102.158Z" fill="#263238"/>
<path d="M115.973 102.158C115.973 102.106 117.388 102.001 119.17 102.001C120.951 102.001 122.366 102.053 122.366 102.158C122.366 102.263 120.951 102.315 119.17 102.315C117.44 102.263 115.973 102.21 115.973 102.158Z" fill="#263238"/>
<path d="M106.436 105.302C106.384 105.302 106.279 103.887 106.279 102.158C106.541 101.896 106.332 102.106 106.436 102.001H106.489H106.594H106.751C106.856 102.001 106.96 102.001 107.065 102.001C107.275 102.001 107.485 102.001 107.642 102.001C108.008 102.001 108.323 102.001 108.637 102.053C109.214 102.053 109.58 102.106 109.58 102.158C109.58 102.21 109.214 102.21 108.637 102.263C108.323 102.263 107.956 102.263 107.642 102.315C107.432 102.315 107.275 102.315 107.065 102.315C106.96 102.315 106.856 102.315 106.751 102.315H106.594H106.489H106.436C106.489 102.263 106.279 102.472 106.594 102.158C106.594 103.887 106.489 105.302 106.436 105.302Z" fill="#263238"/>
<path d="M106.436 117.04C106.384 117.04 106.279 115.73 106.279 114.105C106.279 112.481 106.332 111.171 106.436 111.171C106.489 111.171 106.594 112.481 106.594 114.105C106.594 115.73 106.489 117.04 106.436 117.04Z" fill="#263238"/>
<path d="M106.436 128.777C106.384 128.777 106.279 127.467 106.279 125.843C106.279 124.218 106.332 122.908 106.436 122.908C106.489 122.908 106.594 124.218 106.594 125.843C106.594 127.467 106.489 128.777 106.436 128.777Z" fill="#263238"/>
<path d="M106.436 140.515C106.384 140.515 106.279 139.205 106.279 137.58C106.279 135.956 106.332 134.646 106.436 134.646C106.489 134.646 106.594 135.956 106.594 137.58C106.594 139.205 106.489 140.515 106.436 140.515Z" fill="#263238"/>
<path d="M106.436 152.305C106.384 152.305 106.279 150.995 106.279 149.37C106.279 147.746 106.332 146.436 106.436 146.436C106.489 146.436 106.594 147.746 106.594 149.37C106.594 150.995 106.489 152.305 106.436 152.305Z" fill="#263238"/>
<path d="M106.436 164.042C106.384 164.042 106.279 162.732 106.279 161.108C106.279 159.484 106.332 158.174 106.436 158.174C106.489 158.174 106.594 159.484 106.594 161.108C106.594 162.732 106.489 164.042 106.436 164.042Z" fill="#263238"/>
<path d="M106.436 175.78C106.384 175.78 106.279 174.47 106.279 172.846C106.279 171.221 106.332 169.911 106.436 169.911C106.489 169.911 106.594 171.221 106.594 172.846C106.594 174.47 106.489 175.78 106.436 175.78Z" fill="#263238"/>
<path d="M106.436 187.57C106.384 187.57 106.279 186.26 106.279 184.636C106.279 183.011 106.332 181.701 106.436 181.701C106.489 181.701 106.594 183.011 106.594 184.636C106.594 186.26 106.489 187.57 106.436 187.57Z" fill="#263238"/>
<path d="M109.58 196.583C109.58 196.635 108.166 196.74 106.436 196.74C106.174 196.478 106.384 196.688 106.279 196.583V196.53V196.426V196.268C106.279 196.164 106.279 196.059 106.279 195.954C106.279 195.744 106.279 195.535 106.279 195.378C106.279 195.011 106.279 194.696 106.332 194.382C106.332 193.806 106.384 193.439 106.436 193.439C106.489 193.439 106.489 193.806 106.541 194.382C106.541 194.696 106.541 195.063 106.594 195.378C106.594 195.587 106.594 195.744 106.594 195.954C106.594 196.059 106.594 196.164 106.594 196.268V196.426V196.53V196.583C106.541 196.53 106.751 196.74 106.436 196.426C108.166 196.426 109.58 196.478 109.58 196.583Z" fill="#263238"/>
<path d="M122.209 196.583C122.209 196.635 120.794 196.74 119.065 196.74C117.336 196.74 115.921 196.688 115.921 196.583C115.921 196.478 117.336 196.426 119.065 196.426C120.794 196.426 122.209 196.478 122.209 196.583Z" fill="#263238"/>
<path d="M134.837 196.583C134.837 196.635 133.423 196.74 131.693 196.74C129.964 196.74 128.549 196.688 128.549 196.583C128.549 196.478 129.964 196.426 131.693 196.426C133.423 196.426 134.837 196.478 134.837 196.583Z" fill="#263238"/>
<path d="M147.518 196.583C147.518 196.635 146.103 196.74 144.374 196.74C142.645 196.74 141.23 196.688 141.23 196.583C141.23 196.478 142.645 196.426 144.374 196.426C146.103 196.426 147.518 196.478 147.518 196.583Z" fill="#263238"/>
<path d="M160.146 196.583C160.146 196.635 158.732 196.74 157.002 196.74C155.273 196.74 153.858 196.688 153.858 196.583C153.858 196.478 155.273 196.426 157.002 196.426C158.732 196.426 160.146 196.478 160.146 196.583Z" fill="#263238"/>
<path d="M172.775 196.583C172.775 196.635 171.36 196.74 169.631 196.74C167.902 196.74 166.487 196.688 166.487 196.583C166.487 196.478 167.902 196.426 169.631 196.426C171.36 196.426 172.775 196.478 172.775 196.583Z" fill="#263238"/>
<path d="M185.403 196.583C185.403 196.635 183.988 196.74 182.259 196.74C180.53 196.74 179.115 196.688 179.115 196.583C179.115 196.478 180.53 196.426 182.259 196.426C183.988 196.426 185.403 196.478 185.403 196.583Z" fill="#263238"/>
<path d="M198.032 196.583C198.032 196.635 196.617 196.74 194.888 196.74C193.158 196.74 191.744 196.688 191.744 196.583C191.744 196.478 193.158 196.426 194.888 196.426C196.617 196.426 198.032 196.478 198.032 196.583Z" fill="#263238"/>
<path d="M210.712 196.583C210.712 196.635 209.298 196.74 207.568 196.74C205.839 196.74 204.424 196.688 204.424 196.583C204.424 196.478 205.839 196.426 207.568 196.426C209.298 196.426 210.712 196.478 210.712 196.583Z" fill="#263238"/>
<path d="M223.341 196.583C223.341 196.635 221.926 196.74 220.197 196.74C218.468 196.74 217.053 196.688 217.053 196.583C217.053 196.478 218.468 196.426 220.197 196.426C221.926 196.426 223.341 196.478 223.341 196.583Z" fill="#263238"/>
<path d="M235.969 196.583C235.969 196.635 234.554 196.74 232.825 196.74C231.096 196.74 229.681 196.688 229.681 196.583C229.681 196.478 231.096 196.426 232.825 196.426C234.554 196.426 235.969 196.478 235.969 196.583Z" fill="#263238"/>
<path d="M245.454 196.583C245.454 196.635 244.772 196.74 243.882 196.74C242.991 196.74 242.31 196.688 242.31 196.583C242.31 196.478 242.991 196.426 243.882 196.426C244.72 196.426 245.454 196.478 245.454 196.583Z" fill="#263238"/>
<g opacity="0.3">
<path d="M149.824 156.602C149.824 156.602 149.876 161.842 148.252 164.986C146.68 168.13 146.156 169.387 142.802 170.592C139.449 171.798 97.2666 176.461 97.2666 176.461V162.208L149.824 156.602Z" fill="black"/>
</g>
<g opacity="0.3">
<path d="M149.09 136.847C149.09 136.847 149.562 131.502 136.147 129.511C120.794 127.258 97.3188 124.428 97.3188 124.428V134.541L149.09 136.847Z" fill="black"/>
</g>
<path d="M98.6812 166.558H142.33C146.47 166.558 149.824 163.204 149.824 159.064V139.519C149.824 135.38 146.47 132.026 142.33 132.026H98.6812C94.5416 132.026 91.188 135.38 91.188 139.519V159.064C91.188 163.204 94.5416 166.558 98.6812 166.558Z" fill="#F9F9F9"/>
<path d="M98.6814 166.558C98.6814 166.558 98.5242 166.558 98.2098 166.558C97.8954 166.558 97.4762 166.505 96.8998 166.4C96.3234 166.296 95.6422 166.034 94.9086 165.614C94.175 165.195 93.389 164.566 92.7078 163.728C92.0266 162.837 91.4502 161.737 91.2406 160.427C91.0834 159.746 91.1358 159.064 91.1358 158.331C91.1358 157.597 91.1358 156.864 91.1358 156.078C91.1358 152.934 91.1358 149.423 91.1358 145.493C91.1358 143.554 91.1358 141.458 91.1358 139.31C91.1882 137.161 92.2362 134.908 94.1226 133.493C95.0658 132.812 96.1662 132.288 97.3714 132.078C97.9478 131.974 98.5766 131.921 99.2054 131.974C99.8342 131.974 100.411 131.974 101.039 131.974C103.502 131.974 106.017 131.974 108.637 131.974C119.013 131.974 130.436 131.974 142.383 131.974C143.169 131.974 143.903 132.078 144.636 132.288C145.37 132.498 146.051 132.864 146.68 133.284C147.309 133.703 147.833 134.227 148.357 134.803C148.828 135.38 149.195 136.061 149.509 136.742C149.771 137.423 149.929 138.157 150.033 138.89C150.086 139.624 150.086 140.358 150.086 141.091C150.086 142.506 150.086 143.973 150.086 145.388C150.086 148.218 150.086 150.995 150.086 153.72C150.086 155.082 150.086 156.444 150.086 157.754C150.086 158.436 150.086 159.064 150.033 159.746C150.033 160.06 149.929 160.427 149.929 160.741C149.824 161.056 149.771 161.37 149.667 161.684C148.828 164.2 146.627 166.086 144.217 166.662C143.903 166.767 143.588 166.767 143.274 166.82C142.959 166.82 142.645 166.872 142.331 166.872C141.702 166.872 141.125 166.872 140.549 166.872C139.344 166.872 138.191 166.872 137.038 166.872C132.427 166.872 128.13 166.872 124.2 166.872C116.34 166.872 110 166.82 105.598 166.82C103.397 166.82 101.721 166.82 100.568 166.82C99.9914 166.82 99.5722 166.82 99.2578 166.82C98.8386 166.558 98.6814 166.558 98.6814 166.558C98.6814 166.558 98.8386 166.558 99.153 166.558C99.4674 166.558 99.8866 166.558 100.463 166.558C101.616 166.558 103.345 166.558 105.493 166.558C109.895 166.558 116.235 166.558 124.095 166.505C128.025 166.505 132.322 166.505 136.933 166.505C138.086 166.505 139.239 166.505 140.444 166.505C141.649 166.453 142.855 166.61 144.007 166.296C146.365 165.772 148.461 163.938 149.3 161.475C149.771 160.27 149.667 158.96 149.667 157.597C149.667 156.287 149.667 154.925 149.667 153.562C149.667 150.838 149.667 148.06 149.667 145.231C149.667 143.816 149.667 142.401 149.667 140.934C149.667 140.2 149.667 139.467 149.614 138.786C149.509 138.104 149.352 137.371 149.09 136.742C148.828 136.061 148.461 135.432 147.99 134.908C147.518 134.332 146.994 133.86 146.418 133.441C145.789 133.022 145.16 132.707 144.479 132.498C143.798 132.288 143.064 132.183 142.331 132.183C130.331 132.183 118.96 132.183 108.585 132.183C105.965 132.183 103.45 132.183 100.987 132.183C100.358 132.183 99.7818 132.183 99.153 132.183C98.5242 132.183 97.9478 132.183 97.3714 132.288C96.2186 132.498 95.1182 132.969 94.2274 133.65C92.3934 135.013 91.3454 137.214 91.293 139.31C91.2406 141.458 91.293 143.502 91.293 145.44C91.293 149.37 91.293 152.934 91.293 156.025C91.293 156.811 91.293 157.545 91.293 158.278C91.293 159.012 91.293 159.693 91.3978 160.374C91.6074 161.684 92.1838 162.785 92.865 163.676C93.5462 164.566 94.2798 165.143 95.0134 165.562C95.747 165.981 96.4282 166.243 97.0046 166.348C97.581 166.505 98.0002 166.558 98.3146 166.558C98.5242 166.558 98.6814 166.558 98.6814 166.558Z" fill="#263238"/>
<path d="M132.165 163.152C139.11 163.152 144.741 157.521 144.741 150.576C144.741 143.63 139.11 138 132.165 138C125.219 138 119.589 143.63 119.589 150.576C119.589 157.521 125.219 163.152 132.165 163.152Z" fill="#263238"/>
<path d="M135.414 160.846C135.361 160.794 136.724 160.532 138.4 159.274C139.239 158.645 140.13 157.807 140.916 156.654C141.702 155.501 142.33 154.086 142.592 152.567C142.854 150.995 142.697 149.475 142.278 148.165C141.911 146.855 141.282 145.755 140.654 144.864C139.396 143.187 138.243 142.506 138.296 142.454C138.296 142.454 138.348 142.506 138.505 142.558C138.61 142.663 138.82 142.768 139.082 142.978C139.553 143.344 140.182 143.921 140.811 144.759C141.44 145.598 142.068 146.75 142.488 148.06C142.907 149.423 143.064 150.995 142.802 152.619C142.54 154.244 141.859 155.658 141.073 156.811C140.287 157.964 139.344 158.855 138.453 159.431C137.562 160.06 136.776 160.374 136.252 160.584C135.99 160.689 135.728 160.741 135.623 160.794C135.466 160.846 135.414 160.846 135.414 160.846Z" fill="#FAFAFA"/>
<path d="M328.717 70.0892C329.87 82.8224 320.438 94.0884 307.653 95.1888C294.919 96.3416 283.653 86.962 282.501 74.2288C281.348 61.4956 290.78 50.2296 303.565 49.1292C316.299 47.9764 327.565 57.356 328.717 70.0892Z" fill="#F9F9F9"/>
<path d="M323.163 70.0368C323.058 70.0368 322.901 69.3032 322.534 67.9408C322.115 66.6308 321.434 64.7444 320.019 62.7008C319.338 61.7052 318.447 60.6572 317.399 59.714C316.351 58.7708 315.094 57.8276 313.679 57.094C312.945 56.7272 312.212 56.4128 311.426 56.0984C310.64 55.8364 309.801 55.5744 308.963 55.4172C308.124 55.26 307.234 55.1552 306.343 55.1028C305.452 55.0504 304.509 55.1028 303.618 55.2076C302.727 55.3124 301.784 55.522 300.946 55.7316C300.055 55.9936 299.269 56.308 298.483 56.6748C297.697 57.0416 296.963 57.4608 296.23 57.9324C295.548 58.404 294.867 58.8756 294.291 59.3996C293.086 60.4476 292.09 61.6528 291.304 62.8056C290.518 64.0108 289.942 65.216 289.47 66.3164C288.579 68.622 288.37 70.6132 288.265 71.9756C288.212 73.338 288.212 74.124 288.108 74.124C288.055 74.124 287.793 73.3904 287.741 71.9756C287.688 70.5608 287.741 68.4648 288.579 66.002C288.998 64.7968 289.575 63.4868 290.361 62.1768C291.147 60.8668 292.195 59.6092 293.452 58.4564C294.081 57.88 294.762 57.3036 295.548 56.832C296.282 56.308 297.068 55.8364 297.959 55.4696C298.797 55.0504 299.688 54.736 300.631 54.474C301.574 54.212 302.518 54.0024 303.513 53.8976C304.509 53.7928 305.504 53.7404 306.448 53.7928C307.391 53.8452 308.386 53.95 309.277 54.1596C310.22 54.3168 311.059 54.5788 311.95 54.8932C312.788 55.2076 313.574 55.5744 314.36 55.9936C315.88 56.832 317.19 57.8276 318.29 58.8756C319.39 59.9236 320.229 61.0764 320.91 62.1768C322.272 64.3776 322.849 66.4212 323.111 67.7836C323.268 69.2508 323.268 70.0368 323.163 70.0368Z" fill="#CAC4C4"/>
<path d="M307.802 75.3922L297.765 76.5523L297.435 73.7033L307.407 72.5508C308.251 72.4532 308.917 72.2426 309.406 71.9188C309.893 71.5863 310.228 71.1688 310.41 70.6666C310.592 70.1555 310.647 69.5878 310.574 68.9635C310.507 68.3831 310.322 67.8566 310.018 67.3838C309.713 66.9111 309.289 66.5503 308.743 66.3015C308.206 66.0516 307.538 65.973 306.737 66.0654L302.992 66.4984L304.879 82.8274L301.252 83.2466L299.032 64.0422L306.392 63.1916C307.896 63.0178 309.206 63.1337 310.322 63.5393C311.438 63.945 312.331 64.5769 313 65.4352C313.678 66.2924 314.087 67.3189 314.225 68.5148C314.371 69.781 314.207 70.9005 313.731 71.8733C313.264 72.8451 312.527 73.6343 311.518 74.2409C310.518 74.8377 309.279 75.2214 307.802 75.3922ZM308.473 76.571L308.804 79.4332L298.239 80.6543L297.908 77.7922L308.473 76.571Z" fill="#CAC4C4"/>
<path d="M288.003 73.8096C288.003 73.8096 288.003 73.862 288.055 73.9668C288.055 74.0716 288.108 74.2288 288.108 74.386C288.16 74.5956 288.16 74.8052 288.212 75.0672C288.265 75.3292 288.317 75.6436 288.37 75.958C288.684 77.3204 289.313 79.2592 290.623 81.4076C291.252 82.4556 292.142 83.556 293.138 84.604C293.4 84.866 293.662 85.0756 293.976 85.3376C294.134 85.4424 294.238 85.5996 294.396 85.7044C294.553 85.8092 294.71 85.914 294.867 86.0712C295.182 86.2808 295.496 86.5428 295.81 86.7524C296.177 86.962 296.492 87.1716 296.858 87.3812C298.326 88.1672 299.898 88.8484 301.679 89.2676C303.408 89.6344 305.295 89.7916 307.181 89.6344C309.068 89.4248 310.902 88.9532 312.526 88.272C314.203 87.5908 315.618 86.5952 316.928 85.5472C317.242 85.2852 317.556 85.0232 317.818 84.7088C318.133 84.4468 318.342 84.1324 318.657 83.8704C318.814 83.7132 318.919 83.6084 319.076 83.4512C319.181 83.294 319.286 83.1368 319.443 82.9796C319.652 82.6652 319.914 82.4032 320.124 82.0888C320.91 80.8836 321.591 79.6784 322.01 78.4732C322.901 76.1676 323.163 74.124 323.216 72.7092C323.268 72.3424 323.216 72.028 323.216 71.766C323.216 71.504 323.216 71.2944 323.216 71.0848C323.216 70.9276 323.216 70.7704 323.216 70.6656C323.216 70.5608 323.216 70.5084 323.216 70.5084C323.216 70.5084 323.216 70.5608 323.216 70.6656C323.216 70.7704 323.216 70.9276 323.268 71.0848C323.268 71.2944 323.268 71.504 323.32 71.766C323.32 72.028 323.373 72.3424 323.32 72.7092C323.32 74.124 323.058 76.1676 322.168 78.5256C321.748 79.7308 321.067 80.936 320.281 82.1936C320.072 82.508 319.81 82.77 319.6 83.0844C319.495 83.2416 319.39 83.3988 319.233 83.556C319.076 83.7132 318.971 83.8704 318.814 83.9752C318.552 84.2372 318.29 84.5516 317.976 84.866C317.661 85.128 317.347 85.39 317.032 85.7044C315.722 86.7524 314.255 87.748 312.578 88.4816C310.902 89.1628 309.068 89.6868 307.129 89.8964C305.19 90.0536 303.304 89.8964 301.522 89.5296C299.74 89.1628 298.116 88.4292 296.649 87.6432C296.282 87.4336 295.968 87.224 295.601 87.0144C295.234 86.8048 294.972 86.5428 294.658 86.2808C294.5 86.176 294.343 86.0188 294.186 85.914C294.029 85.8092 293.872 85.652 293.767 85.5472C293.505 85.2852 293.19 85.0232 292.928 84.7612C291.933 83.6608 291.042 82.6128 290.413 81.5124C289.103 79.364 288.474 77.3728 288.212 76.0104C288.108 75.696 288.108 75.3816 288.055 75.0672C288.003 74.8052 288.003 74.5956 287.95 74.386C287.95 74.2288 287.898 74.0716 287.898 73.9668C288.003 73.862 288.003 73.8096 288.003 73.8096Z" fill="#263238"/>
<path d="M73.1571 133.314C76.3999 144.754 69.716 156.673 58.2192 159.877C46.7793 163.119 34.8697 156.483 31.6269 145.043C28.3841 133.604 35.068 121.685 46.5648 118.481C58.0046 115.238 69.9143 121.874 73.1571 133.314Z" fill="#F9F9F9"/>
<path d="M68.0715 134.221C67.9757 134.239 67.7059 133.596 67.1364 132.414C66.528 131.288 65.5811 129.681 63.9366 128.057C63.1428 127.264 62.1485 126.459 61.0285 125.777C59.9084 125.095 58.5968 124.449 57.1776 124.022C56.444 123.813 55.7195 123.652 54.947 123.499C54.1836 123.395 53.3722 123.3 52.5789 123.3C51.7856 123.301 50.9534 123.358 50.1302 123.463C49.307 123.569 48.4539 123.779 47.6578 124.028C46.8616 124.277 46.0356 124.63 45.3053 124.966C44.5362 125.359 43.8718 125.781 43.2165 126.251C42.5611 126.722 41.9627 127.231 41.3733 127.788C40.8317 128.336 40.2902 128.885 39.8535 129.463C38.9321 130.628 38.2293 131.9 37.7091 133.089C37.1979 134.326 36.8783 135.527 36.6364 136.613C36.2186 138.874 36.3694 140.73 36.5078 141.993C36.6942 143.247 36.8293 143.966 36.7335 143.984C36.6856 143.993 36.32 143.367 36.0289 142.083C35.7378 140.799 35.4253 138.874 35.7682 136.479C35.9441 135.306 36.2457 134.009 36.7389 132.677C37.2321 131.344 37.9737 130.015 38.925 128.745C39.4006 128.11 39.9241 127.466 40.5615 126.9C41.1419 126.295 41.7792 125.728 42.5303 125.24C43.2246 124.713 43.9847 124.272 44.8017 123.871C45.6187 123.469 46.4448 123.115 47.3367 122.848C48.2287 122.581 49.1297 122.362 50.0008 122.248C50.8719 122.134 51.7998 122.058 52.6501 122.097C53.5392 122.078 54.3505 122.174 55.2188 122.308C56.0391 122.451 56.8206 122.651 57.611 122.899C59.1441 123.404 60.5126 124.089 61.6985 124.858C62.8844 125.626 63.8489 126.536 64.6607 127.425C66.2843 129.202 67.1625 130.971 67.6362 132.171C68.0321 133.485 68.1672 134.203 68.0715 134.221Z" fill="#CAC4C4"/>
<path d="M54.9525 141.757L45.9778 144.543L45.187 141.995L54.1027 139.228C54.8575 138.993 55.4302 138.686 55.8209 138.306C56.2091 137.919 56.4434 137.48 56.5239 136.989C56.602 136.491 56.5543 135.963 56.381 135.404C56.22 134.885 55.9598 134.436 55.6005 134.056C55.2413 133.677 54.7909 133.42 54.2495 133.286C53.7159 133.15 53.0914 133.193 52.3759 133.415L49.0266 134.455L53.559 149.055L50.3158 150.062L44.9854 132.891L51.566 130.848C52.9105 130.431 54.1277 130.311 55.2176 130.49C56.3075 130.669 57.2322 131.093 57.9916 131.762C58.7589 132.429 59.3085 133.297 59.6405 134.367C59.9919 135.499 60.0339 136.55 59.7664 137.521C59.5067 138.49 58.9684 139.338 58.1513 140.066C57.3396 140.783 56.2733 141.347 54.9525 141.757ZM55.7684 142.719L56.5628 145.278L47.1163 148.211L46.3219 145.651L55.7684 142.719Z" fill="#CAC4C4"/>
<path d="M36.5838 143.714C36.5838 143.714 36.5928 143.762 36.6587 143.849C36.6767 143.945 36.7516 144.079 36.7786 144.223C36.8626 144.406 36.8986 144.597 36.9915 144.828C37.0845 145.058 37.1864 145.337 37.2884 145.615C37.81 146.806 38.718 148.47 40.2847 150.208C41.0396 151.058 42.043 151.911 43.1331 152.698C43.4176 152.892 43.6931 153.038 44.0255 153.224C44.1872 153.293 44.31 153.418 44.4717 153.487C44.6334 153.556 44.7951 153.625 44.9658 153.741C45.2892 153.879 45.6216 154.064 45.945 154.202C46.3163 154.33 46.6397 154.468 47.011 154.596C48.4871 155.062 50.0411 155.415 51.7415 155.492C53.385 155.53 55.1362 155.349 56.8334 154.881C58.5215 154.365 60.1167 153.619 61.4843 152.717C62.8997 151.806 64.0217 150.653 65.0388 149.47C65.2812 149.176 65.5235 148.883 65.7089 148.55C65.9512 148.257 66.0887 147.933 66.331 147.64C66.4477 147.469 66.5255 147.355 66.6421 147.185C66.7109 147.023 66.7796 146.861 66.8963 146.69C67.0338 146.367 67.2282 146.083 67.3657 145.759C67.8769 144.522 68.2923 143.304 68.4683 142.13C68.8861 139.87 68.7742 137.957 68.5789 136.655C68.5637 136.31 68.4618 136.032 68.4167 135.793C68.3717 135.553 68.3356 135.362 68.2996 135.17C68.2726 135.026 68.2456 134.883 68.2275 134.787C68.2095 134.691 68.2005 134.643 68.2005 134.643C68.2005 134.643 68.2095 134.691 68.2275 134.787C68.2456 134.883 68.2726 135.026 68.3475 135.161C68.3835 135.353 68.4196 135.544 68.5125 135.775C68.5575 136.014 68.6595 136.292 68.6746 136.637C68.9179 137.93 69.0298 139.843 68.621 142.151C68.4451 143.325 68.0296 144.543 67.5274 145.828C67.3899 146.151 67.1955 146.436 67.058 146.759C66.9892 146.921 66.9205 147.083 66.8038 147.253C66.6871 147.424 66.6184 147.586 66.4927 147.708C66.2983 147.993 66.1129 148.325 65.8796 148.667C65.6373 148.96 65.3949 149.254 65.1616 149.595C64.1445 150.778 62.9746 151.941 61.5682 152.899C60.1527 153.81 58.5665 154.604 56.8305 155.129C55.0855 155.606 53.3343 155.787 51.6429 155.758C49.9514 155.729 48.3406 155.338 46.8645 154.872C46.4932 154.743 46.1698 154.606 45.7985 154.477C45.4272 154.349 45.1427 154.154 44.8103 153.969C44.6486 153.9 44.4779 153.783 44.3162 153.715C44.1545 153.646 43.9838 153.529 43.87 153.452C43.5855 153.257 43.2531 153.072 42.9686 152.877C41.8694 152.043 40.875 151.238 40.1111 150.34C38.5444 148.602 37.6274 146.89 37.1537 145.69C37.0038 145.421 36.9498 145.133 36.8479 144.855C36.7549 144.624 36.7189 144.433 36.6349 144.25C36.6079 144.107 36.533 143.972 36.515 143.876C36.5928 143.762 36.5838 143.714 36.5838 143.714Z" fill="#263238"/>
<path d="M295.958 139.117C292.574 145.693 284.475 148.271 277.89 144.846C271.314 141.461 268.719 133.388 272.104 126.813C275.488 120.237 283.586 117.658 290.172 121.084C296.748 124.468 299.342 132.541 295.958 139.117Z" fill="#F9F9F9"/>
<path d="M293.261 137.37C293.21 137.337 293.361 136.93 293.604 136.151C293.805 135.382 294.057 134.249 294 132.813C293.976 132.115 293.866 131.327 293.646 130.542C293.427 129.756 293.105 128.906 292.641 128.109C292.397 127.702 292.136 127.322 291.85 126.924C291.547 126.553 291.219 126.165 290.858 125.828C290.497 125.492 290.095 125.164 289.676 124.862C289.257 124.561 288.78 124.294 288.313 124.069C287.845 123.844 287.32 123.654 286.845 123.497C286.329 123.348 285.848 123.258 285.35 123.194C284.852 123.129 284.364 123.107 283.86 123.109C283.381 123.129 282.902 123.148 282.458 123.225C281.545 123.363 280.685 123.643 279.944 123.963C279.186 124.308 278.531 124.717 277.96 125.109C276.81 125.959 276.09 126.866 275.617 127.499C275.169 128.148 274.925 128.532 274.874 128.499C274.848 128.483 274.948 128.044 275.361 127.336C275.774 126.629 276.449 125.622 277.622 124.679C278.2 124.22 278.888 123.759 279.678 123.363C280.468 122.967 281.369 122.678 282.341 122.504C282.827 122.418 283.338 122.348 283.868 122.361C284.389 122.332 284.919 122.346 285.468 122.443C286.007 122.498 286.54 122.62 287.081 122.785C287.623 122.949 288.149 123.139 288.668 123.397C289.186 123.654 289.689 123.937 290.133 124.255C290.578 124.573 291.031 124.933 291.401 125.311C291.813 125.681 292.141 126.068 292.479 126.498C292.791 126.912 293.061 127.334 293.315 127.783C293.797 128.663 294.129 129.556 294.341 130.408C294.554 131.261 294.606 132.084 294.597 132.833C294.58 134.33 294.228 135.507 293.934 136.253C293.556 137.019 293.312 137.402 293.261 137.37Z" fill="#CAC4C4"/>
<path d="M284.1 135.224L278.838 132.679L279.56 131.185L284.787 133.714C285.23 133.928 285.62 134.031 285.959 134.025C286.3 134.013 286.593 133.913 286.838 133.724C287.085 133.531 287.288 133.271 287.446 132.944C287.593 132.639 287.666 132.325 287.664 131.999C287.662 131.674 287.566 131.366 287.377 131.076C287.192 130.787 286.89 130.542 286.471 130.339L284.507 129.389L280.367 137.949L278.466 137.029L283.335 126.962L287.193 128.828C287.981 129.209 288.585 129.672 289.004 130.216C289.424 130.76 289.664 131.346 289.725 131.972C289.79 132.601 289.671 133.229 289.368 133.856C289.047 134.52 288.62 135.015 288.086 135.343C287.557 135.673 286.952 135.83 286.271 135.814C285.598 135.795 284.874 135.598 284.1 135.224ZM284.062 136.007L283.336 137.508L277.798 134.829L278.523 133.329L284.062 136.007Z" fill="#CAC4C4"/>
<path d="M274.92 128.313C274.92 128.313 274.904 128.339 274.897 128.406C274.865 128.458 274.842 128.551 274.793 128.627C274.754 128.746 274.689 128.848 274.633 128.992C274.577 129.137 274.505 129.306 274.434 129.476C274.165 130.239 273.871 131.381 273.845 132.836C273.827 133.543 273.921 134.356 274.082 135.177C274.129 135.386 274.192 135.57 274.264 135.795C274.309 135.895 274.311 136.004 274.355 136.104C274.4 136.204 274.444 136.304 274.472 136.429C274.561 136.629 274.633 136.855 274.721 137.054C274.836 137.271 274.924 137.47 275.038 137.686C275.511 138.525 276.068 139.345 276.808 140.102C277.539 140.817 278.411 141.479 279.381 141.987C280.368 142.469 281.409 142.807 282.414 142.978C283.444 143.165 284.443 143.118 285.408 143.012C285.643 142.981 285.878 142.951 286.103 142.879C286.338 142.848 286.538 142.76 286.772 142.729C286.898 142.701 286.982 142.682 287.107 142.654C287.207 142.61 287.307 142.566 287.432 142.538C287.632 142.449 287.841 142.402 288.041 142.314C288.799 141.969 289.505 141.591 290.083 141.133C291.233 140.283 291.994 139.366 292.459 138.691C292.598 138.528 292.67 138.359 292.751 138.231C292.832 138.103 292.897 138 292.962 137.898C293.011 137.821 293.06 137.744 293.092 137.693C293.125 137.642 293.141 137.617 293.141 137.617C293.141 137.617 293.125 137.642 293.092 137.693C293.06 137.744 293.011 137.821 292.988 137.914C292.923 138.017 292.858 138.119 292.802 138.263C292.721 138.391 292.649 138.561 292.51 138.724C292.071 139.415 291.31 140.332 290.144 141.207C289.565 141.666 288.859 142.043 288.085 142.414C287.886 142.502 287.677 142.549 287.477 142.638C287.377 142.682 287.277 142.726 287.151 142.754C287.026 142.782 286.926 142.826 286.817 142.829C286.608 142.876 286.382 142.948 286.131 143.004C285.896 143.035 285.662 143.065 285.411 143.121C284.446 143.227 283.421 143.258 282.374 143.097C281.344 142.91 280.286 142.597 279.274 142.098C278.279 141.574 277.406 140.913 276.65 140.181C275.894 139.45 275.328 138.588 274.855 137.749C274.741 137.533 274.652 137.334 274.538 137.117C274.424 136.901 274.377 136.692 274.305 136.467C274.26 136.367 274.232 136.241 274.188 136.142C274.144 136.042 274.116 135.916 274.097 135.832C274.05 135.623 273.978 135.398 273.931 135.189C273.786 134.343 273.676 133.555 273.71 132.822C273.736 131.367 274.046 130.2 274.341 129.453C274.387 129.267 274.484 129.114 274.556 128.944C274.612 128.8 274.677 128.697 274.716 128.579C274.765 128.502 274.788 128.409 274.821 128.358C274.904 128.339 274.92 128.313 274.92 128.313Z" fill="#263238"/>
<path d="M350 206.5C350 206.667 271.88 207 175.5 207C79.1195 207 1 206.833 1 206.5C1 206.167 79.1195 206 175.5 206C271.88 206 350 206.333 350 206.5Z" fill="#263238"/>
<path d="M268.772 107.398C268.772 107.398 268.719 103.887 268.562 103.887L261.383 105.459C261.331 105.931 260.388 111.642 260.545 112.166L268.615 114.42C268.667 114.472 268.772 107.608 268.772 107.398Z" fill="#FFBE9D"/>
<path d="M268.772 113.948C268.772 113.948 268.772 113.896 268.824 113.791C268.929 113.005 268.876 109.599 268.457 109.442C267.986 109.284 266.833 109.546 266.728 110.018C266.623 110.49 266.938 114.315 266.938 114.315C266.938 114.315 267.042 114.944 268.038 115.048C268.614 115.101 268.772 113.948 268.772 113.948Z" fill="#FFBE9D"/>
<path d="M266.728 115.153C266.728 115.153 266.728 115.101 266.78 114.996C266.885 114.21 266.833 110.804 266.414 110.647C265.942 110.49 264.789 110.752 264.684 111.223C264.58 111.695 264.894 115.52 264.894 115.52C264.894 115.52 264.999 116.149 265.994 116.254C266.571 116.358 266.728 115.153 266.728 115.153Z" fill="#FFBE9D"/>
<path d="M264.737 115.782C264.737 115.782 264.737 115.73 264.789 115.625C264.894 114.839 264.842 111.433 264.422 111.276C263.951 111.118 262.798 111.38 262.693 111.852C262.588 112.324 262.903 116.149 262.903 116.149C262.903 116.149 263.008 116.778 264.003 116.882C264.58 116.935 264.737 115.782 264.737 115.782Z" fill="#FFBE9D"/>
<path d="M262.746 116.358C262.746 116.358 262.746 116.306 262.798 116.201C262.903 115.415 262.85 112.009 262.431 111.852C261.96 111.695 260.807 111.957 260.702 112.428C260.597 112.9 260.912 116.725 260.912 116.725C260.912 116.725 261.016 117.354 262.012 117.459C262.588 117.511 262.746 116.358 262.746 116.358Z" fill="#FFBE9D"/>
<path d="M266.728 111.014C266.78 111.014 266.833 111.747 266.885 112.69C266.938 113.581 266.885 114.315 266.833 114.315C266.78 114.315 266.728 113.581 266.676 112.638C266.623 111.747 266.623 111.014 266.728 111.014Z" fill="#EB996E"/>
<path d="M264.684 110.961C264.737 110.961 264.842 112.009 264.894 113.319C264.946 114.629 264.946 115.677 264.894 115.677C264.842 115.677 264.737 114.629 264.684 113.319C264.632 112.062 264.632 110.961 264.684 110.961Z" fill="#EB996E"/>
<g opacity="0.78">
<path d="M262.641 111.171C262.693 111.171 262.798 112.219 262.85 113.529C262.903 114.839 262.903 115.887 262.85 115.887C262.798 115.887 262.693 114.839 262.641 113.529C262.588 112.219 262.588 111.171 262.641 111.171Z" fill="#EB996E"/>
</g>
<path d="M261.383 105.669C261.383 105.669 258.554 112.114 258.973 112.533C259.392 112.952 260.702 113.529 260.702 113.529L261.383 105.669Z" fill="#FFBE9D"/>
<path d="M245.664 19.2612L243.568 43.3652L231.516 42.422C231.463 41.0072 231.516 35.5576 231.516 35.5576C231.516 35.5576 226.485 34.7716 226.433 29.7412C226.38 27.2784 226.747 22.248 227.114 17.7416C227.533 12.7112 231.882 8.93839 236.913 9.20039C242.205 9.46239 246.135 14.0212 245.664 19.2612Z" fill="#FFBE9D"/>
<path d="M231.568 35.4528C231.568 35.4528 234.764 35.7148 238.118 33.5664C238.118 33.5664 236.546 37.182 231.568 36.7104V35.4528Z" fill="#EB996E"/>
<path d="M228.529 21.2C228.529 21.5668 228.843 21.8812 229.21 21.9336C229.629 21.9336 229.944 21.6716 229.944 21.3048C229.944 20.938 229.629 20.6236 229.262 20.5712C228.843 20.5712 228.529 20.8332 228.529 21.2Z" fill="#263238"/>
<path d="M228.214 20.2568C228.319 20.3616 228.843 19.9424 229.629 19.9424C230.415 19.9424 230.992 20.3092 231.044 20.2568C231.096 20.2044 230.992 20.0472 230.73 19.89C230.468 19.7328 230.048 19.5232 229.577 19.5232C229.105 19.5232 228.686 19.6804 228.476 19.89C228.267 20.0472 228.214 20.2044 228.214 20.2568Z" fill="#263238"/>
<path d="M236.126 21.2C236.126 21.5668 236.441 21.8812 236.808 21.9336C237.227 21.9336 237.541 21.6716 237.541 21.3048C237.541 20.938 237.227 20.6236 236.86 20.5712C236.441 20.5712 236.126 20.8332 236.126 21.2Z" fill="#263238"/>
<path d="M235.812 20.3616C235.917 20.4664 236.441 20.0472 237.227 20.0472C238.013 20.0472 238.589 20.414 238.642 20.3616C238.694 20.3092 238.589 20.152 238.327 19.9948C238.065 19.8376 237.646 19.628 237.175 19.628C236.703 19.628 236.284 19.7852 236.074 19.9948C235.865 20.152 235.76 20.3616 235.812 20.3616Z" fill="#263238"/>
<path d="M233.035 26.1256C233.035 26.0732 232.563 26.0208 231.777 25.916C231.568 25.916 231.411 25.8636 231.358 25.7064C231.306 25.5492 231.411 25.3396 231.515 25.13C231.725 24.6584 231.882 24.1344 232.092 23.6104C232.878 21.462 233.507 19.7328 233.402 19.6804C233.297 19.628 232.563 21.3572 231.777 23.5056C231.568 24.0296 231.411 24.5536 231.201 25.0252C231.149 25.2348 230.991 25.4968 231.096 25.8112C231.149 25.9684 231.306 26.0732 231.411 26.0732C231.515 26.1256 231.673 26.1256 231.725 26.1256C232.511 26.1256 233.035 26.1256 233.035 26.1256Z" fill="#263238"/>
<path d="M235.288 26.6496C235.184 26.6496 235.184 27.488 234.45 28.0644C233.716 28.6408 232.826 28.5884 232.826 28.6932C232.826 28.7456 233.035 28.8504 233.402 28.8504C233.769 28.8504 234.293 28.7456 234.764 28.3788C235.184 28.012 235.393 27.5404 235.393 27.1736C235.446 26.8592 235.341 26.6496 235.288 26.6496Z" fill="#263238"/>
<path d="M235.603 17.3748C235.655 17.5844 236.441 17.4796 237.332 17.5844C238.223 17.6892 238.956 17.9512 239.113 17.7416C239.166 17.6368 239.061 17.4796 238.747 17.27C238.432 17.0604 238.013 16.8508 237.437 16.7984C236.913 16.746 236.389 16.8508 236.074 16.9556C235.76 17.1128 235.603 17.27 235.603 17.3748Z" fill="#263238"/>
<path d="M228.529 18.0036C228.686 18.1608 229.21 18.0036 229.839 18.0036C230.467 17.9512 231.044 18.1084 231.149 17.9512C231.201 17.8464 231.096 17.6892 230.887 17.532C230.677 17.3748 230.258 17.2176 229.839 17.27C229.419 17.27 229 17.4272 228.791 17.6368C228.529 17.7416 228.476 17.8988 228.529 18.0036Z" fill="#263238"/>
<path d="M246.764 16.1696C246.502 18.6324 245.821 21.6716 245.611 24.1868C245.611 24.3964 245.559 24.6584 245.454 24.868C245.087 25.3396 244.249 26.3876 243.83 25.9684C242.782 24.9728 242.363 22.248 242.153 20.7808C241.943 19.366 241.996 17.8988 241.786 16.484C241.786 16.4316 241.786 16.4316 241.786 16.3792C241.629 15.3836 241.105 14.4404 240.319 13.8116C240.109 13.7068 239.952 13.5496 239.743 13.4972C238.275 12.9732 235.813 13.9164 234.345 14.4928C233.612 14.7548 232.878 15.1216 232.092 15.436C230.415 16.222 228.424 16.0648 226.905 15.0168C226.014 14.388 225.909 12.3444 226.328 11.0344C227.376 7.52358 231.778 6.31838 237.437 7.68078C242.991 8.93838 247.341 11.1392 246.764 16.1696Z" fill="#263238"/>
<path d="M243.987 21.5144C244.092 21.462 247.445 20.5188 247.34 23.9248C247.236 27.3832 243.83 26.5448 243.83 26.44C243.777 26.3352 243.987 21.5144 243.987 21.5144Z" fill="#FFBE9D"/>
<path d="M244.878 25.1824C244.878 25.1824 244.93 25.2348 245.035 25.2872C245.14 25.3396 245.297 25.392 245.507 25.2872C245.874 25.1824 246.188 24.606 246.24 23.9772C246.24 23.6628 246.188 23.3484 246.083 23.1388C245.978 22.8768 245.821 22.7196 245.664 22.6672C245.507 22.6148 245.35 22.7196 245.297 22.8244C245.245 22.9292 245.245 22.9816 245.245 22.9816C245.245 22.9816 245.192 22.9292 245.192 22.772C245.192 22.7196 245.245 22.6148 245.35 22.5624C245.454 22.51 245.559 22.4576 245.664 22.51C245.926 22.5624 246.136 22.772 246.293 23.0864C246.398 23.3484 246.502 23.7152 246.45 24.0296C246.398 24.7108 246.031 25.3396 245.507 25.4968C245.245 25.5492 245.088 25.4968 244.983 25.392C244.878 25.2872 244.878 25.1824 244.878 25.1824Z" fill="#EB996E"/>
<path d="M246.712 16.3792C246.764 16.4316 245.716 17.008 244.249 17.008C242.782 17.0604 241.734 16.484 241.786 16.4316C241.838 16.3268 242.886 16.746 244.249 16.746C245.611 16.746 246.659 16.3268 246.712 16.3792Z" fill="#455A64"/>
<path d="M246.607 17.3748C246.66 17.4272 245.664 18.0036 244.249 18.0036C242.834 18.056 241.839 17.4796 241.891 17.4272C241.944 17.3224 242.939 17.7416 244.249 17.7416C245.559 17.7416 246.555 17.27 246.607 17.3748Z" fill="#455A64"/>
<path d="M222.712 188.408L224.965 198.679C224.965 198.679 215.271 204.39 215.481 206.329L235.55 202.714L232.721 186.574L222.712 188.408Z" fill="#263238"/>
<path d="M235.55 202.714L235.183 201.089L216.057 205.176C216.057 205.176 215.219 205.7 215.429 206.329L235.55 202.714Z" fill="#455A64"/>
<path d="M245.507 189.509L245.821 199.989C245.821 199.989 235.236 203.866 235.131 205.805L255.515 205.91L255.672 189.509H245.507Z" fill="#263238"/>
<g opacity="0.6">
<path d="M255.567 205.91L255.515 204.233L235.97 204.757C235.97 204.757 235.079 205.124 235.184 205.805L255.567 205.91Z" fill="#455A64"/>
</g>
<path d="M221.612 197.212C221.612 197.212 211.132 145.912 211.132 144.916L229.786 135.065L237.017 195.273L221.612 197.212Z" fill="#263238"/>
<path d="M245.14 198.888L230.677 110.018V90.8396L250.38 92.6736C250.642 93.4072 257.087 198.993 257.087 198.993L255.043 198.888H245.14Z" fill="#263238"/>
<path d="M219.306 89.5296L211.132 144.864L229.419 140.462L236.913 91.3112L219.306 89.5296Z" fill="#263238"/>
<path d="M236.284 94.1932C236.284 94.1932 236.284 94.298 236.284 94.4552C236.284 94.6648 236.336 94.9268 236.388 95.2412C236.493 95.9748 236.598 96.9704 236.755 98.2804C237.07 100.953 237.541 104.778 238.17 109.494C239.375 118.978 241.262 132.026 243.253 146.436C244.248 153.667 245.139 160.532 245.925 166.767C246.135 168.339 246.292 169.859 246.502 171.326C246.711 172.793 246.973 174.26 247.183 175.623C247.602 178.4 247.969 180.968 248.336 183.326C249.069 188.042 249.593 191.867 249.96 194.487C250.17 195.797 250.275 196.845 250.379 197.526C250.432 197.893 250.432 198.155 250.484 198.312C250.484 198.417 250.484 198.469 250.484 198.522C250.484 198.574 250.432 198.522 250.432 198.522H250.484C250.484 198.469 250.484 198.417 250.484 198.312C250.484 198.155 250.484 197.84 250.432 197.526C250.379 196.845 250.222 195.797 250.065 194.487C249.75 191.814 249.174 188.042 248.493 183.273C248.126 180.915 247.759 178.348 247.34 175.57C247.13 174.208 246.921 172.741 246.711 171.274C246.502 169.806 246.344 168.287 246.135 166.715C245.349 160.479 244.458 153.562 243.462 146.384C241.471 131.974 239.585 118.926 238.327 109.494C237.698 104.778 237.174 100.953 236.86 98.2804C236.703 96.9704 236.546 95.9224 236.441 95.2412C236.388 94.8744 236.336 94.6124 236.336 94.4552C236.284 94.298 236.284 94.1932 236.284 94.1932Z" fill="#455A64"/>
<path d="M225.227 196.74C225.227 196.74 225.227 196.635 225.175 196.478C225.123 196.321 225.123 196.059 225.07 195.692C224.965 195.011 224.808 194.015 224.546 192.758C224.075 190.19 223.446 186.47 222.66 181.911C221.035 172.741 218.782 160.112 216.319 146.174C216.162 145.336 216.057 144.445 216.162 143.606C216.267 142.768 216.424 141.877 216.529 141.039C216.791 139.31 217.053 137.633 217.315 136.008C217.839 132.707 218.363 129.511 218.835 126.472C219.83 120.393 220.826 114.944 221.664 110.385C222.555 105.826 223.289 102.158 223.865 99.5904C224.127 98.3328 224.389 97.3372 224.546 96.656C224.599 96.3416 224.703 96.0796 224.703 95.9224C224.756 95.7652 224.756 95.6604 224.756 95.6604C224.756 95.6604 224.703 95.7652 224.703 95.9224C224.651 96.0796 224.599 96.3416 224.494 96.656C224.337 97.3372 224.075 98.2804 223.76 99.538C223.131 102.053 222.345 105.721 221.455 110.28C220.564 114.839 219.568 120.288 218.573 126.367C218.049 129.406 217.525 132.602 217.001 135.904C216.739 137.58 216.477 139.257 216.215 140.934C216.11 141.772 215.953 142.663 215.848 143.502C215.743 144.392 215.795 145.283 216.005 146.174C218.52 160.112 220.773 172.741 222.45 181.911C223.289 186.47 223.97 190.19 224.441 192.758C224.703 194.015 224.861 195.011 225.018 195.692C225.07 196.006 225.123 196.268 225.175 196.478C225.227 196.635 225.227 196.74 225.227 196.74Z" fill="#455A64"/>
<path d="M230.677 109.389C230.625 109.389 231.463 115.153 232.564 122.227C233.664 129.301 234.66 135.013 234.712 135.013C234.764 135.013 233.926 129.249 232.826 122.175C231.725 115.101 230.73 109.389 230.677 109.389Z" fill="#455A64"/>
<path d="M244.93 198.731C244.93 198.731 245.087 198.784 245.401 198.836C245.716 198.888 246.135 198.941 246.711 198.941C247.812 199.046 249.331 199.098 251.008 199.15C252.685 199.203 254.204 199.15 255.305 199.098C255.829 199.098 256.3 199.046 256.615 198.993C256.929 198.941 257.086 198.941 257.086 198.941C257.086 198.888 256.405 198.888 255.305 198.888C254.204 198.888 252.685 198.888 251.008 198.888C249.331 198.836 247.812 198.784 246.711 198.784C245.611 198.731 244.93 198.731 244.93 198.731Z" fill="#455A64"/>
<path d="M221.612 197.212C221.612 197.212 221.821 197.212 222.241 197.159C222.66 197.107 223.236 197.054 223.917 197.002C225.332 196.845 227.271 196.583 229.367 196.321C231.515 196.059 233.402 195.797 234.817 195.587C235.498 195.482 236.022 195.378 236.441 195.325C236.808 195.273 237.07 195.22 237.017 195.22C237.017 195.22 236.808 195.22 236.389 195.22C236.022 195.273 235.445 195.325 234.712 195.378C233.297 195.535 231.358 195.797 229.262 196.059C227.114 196.321 225.227 196.583 223.813 196.792C223.131 196.897 222.607 197.002 222.188 197.054C221.821 197.159 221.612 197.159 221.612 197.212Z" fill="#455A64"/>
<path d="M194.102 56.7796L205.892 65.74C205.892 65.74 216.843 47.0332 217.839 45.8804C218.782 44.7276 221.245 43.47 221.245 43.47L219.883 67.4168C219.883 67.4168 213.961 82.5604 205.839 81.722C199.604 81.0932 188.862 64.6396 188.862 64.6396L194.102 56.7796Z" fill="#455A64"/>
<g opacity="0.2">
<path d="M205.682 65.4256C204.058 67.9408 203.586 71.1896 204.477 74.0192C204.582 74.3336 204.687 74.5956 204.949 74.7528C205.368 74.9624 205.892 74.7528 206.102 74.3336C206.364 73.9668 206.364 73.4428 206.416 73.0236C206.626 73.4428 206.888 73.9144 207.307 74.1764C207.726 74.4384 208.302 74.4908 208.617 74.124C208.984 73.7048 208.774 73.0236 208.564 72.4996C207.569 70.2464 206.573 67.9408 205.578 65.6876" fill="black"/>
</g>
<path d="M197.089 59.452C197.141 59.5044 195.936 61.548 194.416 63.9584C192.844 66.4212 191.534 68.36 191.429 68.3076C191.377 68.2552 192.582 66.264 194.102 63.8012C195.674 61.3384 196.984 59.3996 197.089 59.452Z" fill="#263238"/>
<path d="M194.102 59.1376C194.049 59.0852 194.206 58.9804 194.468 59.0328C194.573 59.0852 194.73 59.19 194.783 59.3996C194.835 59.6092 194.678 59.8712 194.521 59.9236C194.311 60.0284 194.049 60.0284 193.892 59.8712C193.735 59.714 193.735 59.5568 193.787 59.3996C193.84 59.1376 194.049 59.0852 194.102 59.1376C194.102 59.19 193.997 59.2948 193.997 59.452C193.997 59.6092 194.154 59.8188 194.364 59.6616C194.573 59.5568 194.521 59.3472 194.364 59.2424C194.259 59.1376 194.102 59.19 194.102 59.1376Z" fill="#263238"/>
<path d="M205.892 71.3992C205.839 71.4516 205.368 70.194 205.368 68.5696C205.315 66.9452 205.735 65.6876 205.839 65.74C205.944 65.74 205.682 66.9976 205.735 68.5696C205.735 70.1416 205.997 71.3992 205.892 71.3992Z" fill="#263238"/>
<path d="M208.197 71.2944C208.145 71.3468 207.359 70.194 206.678 68.622C205.996 67.05 205.734 65.74 205.787 65.6876C205.892 65.6876 206.311 66.9452 206.992 68.4648C207.621 70.0892 208.25 71.2944 208.197 71.2944Z" fill="#263238"/>
<path d="M245.873 41.2168L244.091 37.706H231.201L229.157 41.6884L221.193 43.47L217.787 94.7696C217.787 95.3984 217.944 96.0796 218.258 96.656L249.541 97.8612L250.799 98.3852C251.899 97.704 251.218 94.822 251.218 93.512L251.637 68.098L257.82 47.8192L245.873 41.2168Z" fill="#455A64"/>
<g opacity="0.2">
<path d="M232.511 42.9984C233.245 42.2648 234.031 41.4788 234.764 40.7452C235.603 42.7888 236.494 44.8324 237.332 46.9284C240.266 45.1992 243.096 43.2604 245.716 41.0596C242.834 42.0028 239.952 42.8936 237.07 43.8368C236.336 41.898 235.603 39.9592 234.869 38.0204C234.345 39.802 233.612 41.4788 232.668 43.0508" fill="black"/>
</g>
<path d="M268.824 105.512L260.388 105.931V81.722L251.689 67.9932L257.873 47.7144C259.13 48.2384 268.772 72.3424 271.182 78.8924C271.549 79.8356 271.706 80.8312 271.654 81.8268L268.824 105.512Z" fill="#455A64"/>
<path d="M221.245 54.0548C221.35 54.0548 220.931 59.0328 220.302 65.1112C219.673 71.242 219.149 76.1676 219.044 76.1676C218.94 76.1676 219.359 71.1896 219.988 65.1112C220.616 58.9804 221.14 54.0548 221.245 54.0548Z" fill="#263238"/>
<path d="M234.869 37.968C234.974 38.0204 234.24 39.8544 233.349 42.1076C233.297 42.2648 233.245 42.3696 233.192 42.5268C233.14 42.684 233.087 42.8412 232.93 42.946C232.773 43.1032 232.511 43.0508 232.354 42.9984C232.197 42.946 232.092 42.8412 231.987 42.7888C231.568 42.5268 231.201 42.2648 230.834 42.0028C230.205 41.5312 229.786 41.2692 229.786 41.2168C229.786 41.1644 230.258 41.4264 230.939 41.7932C231.306 42.0028 231.725 42.2648 232.144 42.5268C232.354 42.684 232.616 42.8412 232.721 42.7364C232.878 42.6316 232.93 42.2648 233.087 42.0028C233.978 39.7496 234.817 37.9156 234.869 37.968Z" fill="#263238"/>
<path d="M245.14 41.112C245.14 41.1644 244.406 41.4788 243.148 41.898C241.943 42.3696 240.214 42.946 238.328 43.5748C237.961 43.6796 237.646 43.8368 237.28 43.9416L237.122 43.994L237.07 43.8368C236.389 42.2124 235.812 40.7976 235.446 39.802C235.026 38.754 234.817 38.1252 234.869 38.1252C234.922 38.1252 235.184 38.7016 235.655 39.6972C236.127 40.6928 236.703 42.1076 237.384 43.732L237.175 43.6272C237.489 43.5224 237.856 43.4176 238.223 43.2604C240.109 42.6316 241.838 42.0552 243.096 41.636C244.301 41.3216 245.087 41.0596 245.14 41.112Z" fill="#263238"/>
<path d="M256.51 48.5004C256.51 48.6052 254.729 49.0768 252.633 50.02C250.537 50.9632 248.965 51.9588 248.912 51.9064C248.912 51.854 249.279 51.592 249.908 51.1728C250.537 50.7536 251.48 50.2296 252.528 49.758C253.576 49.2864 254.571 48.972 255.357 48.7624C256.039 48.5004 256.51 48.448 256.51 48.5004Z" fill="#263238"/>
<path d="M234.869 37.968C234.869 37.968 234.869 38.0204 234.869 38.1252C234.869 38.23 234.869 38.3872 234.869 38.5968C234.869 39.016 234.921 39.5924 234.921 40.326C234.921 41.8456 234.921 43.994 234.817 46.7188C234.607 52.116 233.926 59.5044 232.878 67.6788C232.354 71.766 231.777 75.6436 231.411 79.1544C231.044 82.6652 230.834 85.8616 230.887 88.5864C230.939 91.2588 231.149 93.4596 231.411 94.9268C231.515 95.6604 231.62 96.2368 231.673 96.656C231.725 96.8132 231.725 96.9704 231.725 97.1276C231.725 97.2324 231.725 97.2848 231.725 97.2848C231.725 97.2848 231.725 97.2324 231.673 97.1276C231.62 97.0228 231.62 96.8656 231.568 96.7084C231.515 96.3416 231.358 95.7652 231.253 95.0316C230.991 93.5644 230.729 91.3636 230.625 88.6912C230.52 86.0188 230.677 82.77 231.044 79.2592C231.411 75.696 231.987 71.8708 232.511 67.7836C233.559 59.6616 234.293 52.2732 234.555 46.876C234.712 44.2036 234.712 42.0028 234.764 40.5356C234.764 39.802 234.764 39.2256 234.764 38.8064C234.764 38.6492 234.764 38.492 234.764 38.3348C234.869 38.0204 234.869 37.968 234.869 37.968Z" fill="#263238"/>
<path d="M269.296 101.791C269.296 101.896 267.304 101.844 264.842 101.739C262.379 101.634 260.388 101.424 260.388 101.372C260.388 101.267 262.379 101.32 264.842 101.424C267.304 101.582 269.296 101.739 269.296 101.791Z" fill="#263238"/>
<path d="M261.802 102.734C261.855 102.787 261.802 102.839 261.855 102.944C261.907 103.049 262.012 103.101 262.117 103.049C262.222 102.944 262.169 102.839 262.064 102.787C261.96 102.734 261.855 102.787 261.802 102.734C261.802 102.682 261.855 102.525 262.117 102.577C262.222 102.577 262.379 102.682 262.431 102.839C262.484 102.996 262.431 103.206 262.274 103.311C262.117 103.416 261.907 103.468 261.75 103.363C261.593 103.258 261.593 103.101 261.593 102.996C261.645 102.787 261.802 102.734 261.802 102.734Z" fill="#263238"/>
<g opacity="0.2">
<path d="M251.794 67.9932C250.903 66.3164 249.96 64.692 249.069 63.0152C247.969 71.766 248.598 80.674 250.903 89.1628C251.165 82.1412 251.48 75.1196 251.742 68.0456" fill="black"/>
</g>
<path d="M237.856 58.8756C237.856 58.8756 238.013 58.8756 238.327 58.8232C238.694 58.8232 239.218 58.8232 239.795 58.7708C241.052 58.7708 242.886 58.7184 245.139 58.7184H245.297V58.8756C245.139 60.8144 244.982 63.0676 244.825 65.4256V65.5304L244.773 65.5828C244.668 65.6352 244.563 65.6876 244.458 65.74C243.201 66.3688 242.048 66.9976 240.895 67.6264L240.79 67.6788L240.738 67.6264C239.533 66.6308 238.432 65.74 237.437 64.9016L237.384 64.8492V64.7968C237.541 63.0152 237.646 61.548 237.751 60.4476C237.803 59.976 237.856 59.5568 237.856 59.2424C237.803 58.9804 237.803 58.8756 237.856 58.8756C237.908 58.8756 237.856 59.0328 237.856 59.3472C237.856 59.6616 237.803 60.0808 237.803 60.5524C237.751 61.6528 237.646 63.0676 237.541 64.8492L237.489 64.7444C238.485 65.5304 239.637 66.4212 240.843 67.4168H240.685C241.786 66.8404 242.991 66.2116 244.249 65.5304C244.353 65.478 244.458 65.4256 244.563 65.3732L244.458 65.478C244.668 63.0676 244.825 60.8668 244.982 58.928L245.139 59.0852C242.991 59.0852 241.209 59.0328 239.899 59.0328C239.271 59.0328 238.799 58.9804 238.38 58.9804C238.013 58.8756 237.856 58.8756 237.856 58.8756Z" fill="#263238"/>
<path d="M222.346 96.8656C222.346 96.9704 221.664 96.8132 221.245 96.1844C220.826 95.5556 220.931 94.9268 221.036 94.9268C221.14 94.9268 221.14 95.4508 221.507 96.0272C221.926 96.5512 222.398 96.8132 222.346 96.8656Z" fill="#263238"/>
<path d="M223.184 96.5512C223.131 96.6036 222.555 96.0272 222.293 95.084C222.031 94.1408 222.293 93.3548 222.398 93.4072C222.503 93.4072 222.398 94.1408 222.607 95.0316C222.817 95.87 223.236 96.4988 223.184 96.5512Z" fill="#263238"/>
<path d="M246.816 93.0404C246.921 93.0404 246.973 94.298 246.345 95.608C245.716 96.9704 244.72 97.704 244.668 97.6516C244.615 97.5992 245.454 96.7608 246.083 95.5032C246.607 94.1932 246.711 92.988 246.816 93.0404Z" fill="#263238"/>
<path d="M193.473 57.7752C193.473 57.7752 183.936 50.544 182.626 50.0724C180.426 49.2864 179.902 49.496 179.902 49.496L185.142 55.1028C185.142 55.1028 179.64 56.9892 179.22 57.1988C178.801 57.4608 178.644 58.6136 179.954 58.6136C181.054 58.6136 186.347 58.7184 186.347 58.7184L190.696 61.9148L193.473 57.7752Z" fill="#FFBE9D"/>
</svg>
